<?xml version="1.0" standalone="no"?><!DOCTYPE svg PUBLIC "-//W3C//DTD SVG 1.1//EN" "http://www.w3.org/Graphics/SVG/1.1/DTD/svg11.dtd"><svg t="1606183560927" class="icon" viewBox="0 0 1024 1024" version="1.1" xmlns="http://www.w3.org/2000/svg" p-id="7151" xmlns:xlink="http://www.w3.org/1999/xlink" width="200" height="200"><defs><style type="text/css"></style></defs><path d="M261.254751 746.337389a255.693607 255.693607 0 0 1-93.549563-197.678374c0-62.707641 22.736852-120.381608 60.446754-165.002147L181.099882 340.742659c-15.271657 9.726083-32.718885 19.409508-50.635354 19.409508-44.36459 3.412661-82.84234-22.267611-97.644756-67.40005-14.759758-41.677119 3.156711-89.667661 38.520408-115.347934 38.520408-25.72293 86.041709-22.864827 118.760594 6.270764 20.561281 15.996847 32.718885 41.719778 29.562174 70.812711 3.156711 22.31027-2.644812 41.719778-11.645705 57.716625l47.734593 43.468766a254.755125 254.755125 0 0 1 201.346984-60.788019V199.671795c-44.321932-9.683425-77.040817-51.403203-77.040816-99.393745 0-54.815863 38.520408-99.393744 88.686521-99.905643a98.327288 98.327288 0 0 1 103.958178 86.809558c5.801523 51.403203-26.405463 102.806405-77.083475 112.48983V303.075416a256.888038 256.888038 0 0 1 180.828362 205.570152 18.513685 18.513685 0 0 1 8.659627-7.379879l91.800574-35.406355c-5.801523-54.261306 23.760651-102.20919 77.595374-112.489831 47.478643-13.138744 94.957286 15.996847 112.916413 63.98739 14.759758 47.947884-6.313422 102.806405-50.678012 125.031358-44.321932 22.864827-97.602098 6.86798-124.562118-38.264459l-91.800574 35.406356a23.03546 23.03546 0 0 1-21.115839-4.137852 256.290823 256.290823 0 0 1-255.60829 269.258934 254.243226 254.243226 0 0 1-127.846804-34.254582l-94.10412 96.962223c8.958234 16.594063 14.759758 35.406355 14.759758 54.858522a103.830203 103.830203 0 0 1-73.884106 99.393744c-44.321932 9.683425-89.155762-9.726083-109.759701-51.44586-21.115838-38.819016-12.114946-90.222219 20.603939-122.215914 32.718885-31.993695 80.197528-35.406355 118.717936-9.683425l89.155762-91.88589z m495.091759 89.027788l-112.404514-89.667662c-5.801523-3.412661-8.958234-13.138744-8.958234-19.452166 0-6.270764 5.758865-12.541528 11.603047-15.954189 8.958234-2.858103 14.759758 0 20.561281 3.412661l112.916412 93.080322c15.356973-15.996847 32.718885-22.267611 50.678012-25.680272 44.833831-6.313422 85.999051 19.409508 103.958179 61.086627a107.626789 107.626789 0 0 1-32.718885 118.803253c-35.875596 25.72293-82.84234 25.72293-118.717936-3.412661-35.918254-29.135591-44.876489-80.538794-26.917362-122.215913z" p-id="7152"></path></svg>