<?xml version="1.0" standalone="no"?><!DOCTYPE svg PUBLIC "-//W3C//DTD SVG 1.1//EN" "http://www.w3.org/Graphics/SVG/1.1/DTD/svg11.dtd"><svg t="1602732472287" class="icon" viewBox="0 0 1024 1024" version="1.1" xmlns="http://www.w3.org/2000/svg" p-id="10135" xmlns:xlink="http://www.w3.org/1999/xlink" width="200" height="200"><defs><style type="text/css"></style></defs><path d="M572.2 64c-3.3 0-6.7 0.2-10 0.2v387.5h397.7C960.1 237.7 786.3 64 572.2 64z" p-id="10136"></path><path d="M469.7 959.6C244.7 953.9 64.2 770 64.1 543.8c0-226.3 180.6-410.3 405.5-416l29.1-0.7v388.3h397.7v28.4c0 229.9-186.3 416.2-416.2 416.2-4.2-0.1-7.8-0.2-10.5-0.4z m-27.8-387.4V186.5C261.5 205.7 121 358.3 121 543.8c0 195.3 156 354.1 350 359.1 3.8 0.1 6.9 0.2 9.3 0.2 99.3 0 188.9-40.2 254-105.3 58.8-58.8 97.2-137.7 104.1-225.6H441.9z" p-id="10137"></path></svg>