<?xml version="1.0" standalone="no"?><!DOCTYPE svg PUBLIC "-//W3C//DTD SVG 1.1//EN" "http://www.w3.org/Graphics/SVG/1.1/DTD/svg11.dtd"><svg t="1603102254707" class="icon" viewBox="0 0 1024 1024" version="1.1" xmlns="http://www.w3.org/2000/svg" p-id="4658" xmlns:xlink="http://www.w3.org/1999/xlink" width="128" height="128"><defs><style type="text/css"></style></defs><path d="M705.536 589.312h-150.528v-74.24h150.528c20.992 0 37.888-17.408 37.888-37.888 0-20.992-17.408-37.888-37.888-37.888h-133.12l120.832-120.832c15.36-15.36 15.36-39.936 0-55.296s-39.936-15.36-55.296 0L517.12 384 396.288 264.704c-15.36-15.36-39.936-15.36-55.296 0s-15.36 39.936 0 55.296l120.832 120.832h-133.12c-20.992 0-37.888 17.408-37.888 37.888 0 20.992 17.408 37.888 37.888 37.888h150.528v74.24H328.704c-20.992 0-37.888 17.408-37.888 37.888 0 20.992 17.408 37.888 37.888 37.888h150.528v112.128c0 20.992 17.408 37.888 37.888 37.888 20.992 0 37.888-17.408 37.888-37.888V665.6h150.528c20.992 0 37.888-17.408 37.888-37.888 0-20.992-16.896-38.4-37.888-38.4z" fill="" p-id="4659"></path><path d="M980.992 581.632V198.656c-7.168-64-68.608-69.632-68.608-69.632-94.208 0-177.152-25.6-177.152-25.6-101.376-29.696-171.52-87.04-171.52-87.04-23.04-14.848-46.08-13.312-46.08-13.312v98.304c1.536 1.024 156.672 118.784 366.592 121.344v332.8s2.56 61.44-20.48 101.376c0 0-112.64 236.544-346.624 265.216-233.472-28.16-346.112-265.216-346.112-265.216-23.04-39.936-20.48-101.376-20.48-101.376v-332.8C360.96 220.16 516.096 102.4 517.12 101.376V3.072s-23.04-2.048-46.08 13.312c0 0-70.656 57.344-171.52 87.04 0 0-82.944 25.6-177.152 25.6 0 0-61.952 5.632-68.608 69.632v382.976s-11.264 146.944 191.488 321.536c0 0 159.232 124.928 272.384 117.248 113.152 8.192 272.384-117.248 272.384-117.248 202.24-174.592 190.976-321.536 190.976-321.536z" fill="" p-id="4660"></path></svg>