<?xml version="1.0" standalone="no"?><!DOCTYPE svg PUBLIC "-//W3C//DTD SVG 1.1//EN" "http://www.w3.org/Graphics/SVG/1.1/DTD/svg11.dtd">
<svg t="1600940276283" class="icon" viewBox="0 0 1024 1024" version="1.1"
    xmlns="http://www.w3.org/2000/svg" p-id="3245" width="128" height="128"
    xmlns:xlink="http://www.w3.org/1999/xlink">
    <defs>
        <style type="text/css"></style>
    </defs>
    <path d="M482.48452741 531.28862025c-142.5286637 0-258.38983902-115.99062914-258.38983902-258.64874667s115.99062914-258.64874667 258.38983902-258.64874667c142.5286637 0 258.38983902 115.99062914 258.38983901 258.64874667s-115.86117531 258.64874667-258.38983901 258.64874667z m0-452.57057975c-106.79940741 0-193.66292543 86.99297185-193.66292544 193.92183308 0 106.92886124 86.86351803 193.92183309 193.66292544 193.92183309s193.66292543-86.99297185 193.66292542-193.92183309c0-106.92886124-86.86351803-193.92183309-193.66292542-193.92183308z" p-id="3246"></path>
    <path d="M487.53322667 1007.80815803H15.41511902v-32.36345679c0-135.27924939 48.28627753-262.66181531 135.79706468-358.71655507 42.8492168-46.99173925 92.81839408-83.88608 148.48353977-109.6473916 57.86586075-26.79694222 119.35642864-40.38959408 182.78880394-40.38959407v64.72691358c-106.92886124 0-207.64393876 45.82665482-283.50388149 128.93601184-69.64615902 76.37775803-110.94192987 175.66884347-117.80298272 282.72715853h406.4850173v64.72691358zM759.51571753 1005.7368968c-136.70324148 0-248.03353283-111.20083753-248.03353284-248.03353285s111.20083753-248.03353283 248.03353284-248.03353284 248.03353283 111.20083753 248.03353284 248.03353284-111.33029136 248.03353283-248.03353284 248.03353285z m0-431.34015211c-101.10343902 0-183.30661925 82.20318025-183.30661926 183.30661926s82.20318025 183.30661925 183.30661926 183.30661925 183.30661925-82.20318025 183.30661927-183.30661925-82.33263408-183.30661925-183.30661927-183.30661926z" p-id="3247"></path>
    <path d="M707.8636405 709.54654025V818.80557037c0 12.03920592 0.25890765 24.3373195 0.90617678 37.02379457h-18.1235358c0.51781531-12.55702124 0.9061768-24.98458864 0.90617679-37.02379457v-78.19011161c-8.54395259 13.72210569-15.79336691 24.07841185-21.4893353 30.93946471-3.49525333-4.53088395-7.76722963-8.93231408-12.94538272-12.94538272 9.19122173-8.54395259 18.64135111-22.3955121 28.35038814-41.29577088 9.70903703-18.90025876 16.95845136-39.22450963 21.48933531-60.97275259 8.54395259 4.01306864 15.14609778 6.60214518 19.80643555 7.76722963-3.3657995 5.69596839-9.70903703 20.84206617-18.90025875 45.43829334z m49.83972345-49.83972345c3.49525333 0.51781531 9.96794469 1.4239921 19.80643555 2.58907653-1.16508445 6.86105283-0.25890765 29.51547259 2.58907655 67.96325926 27.44421136-5.17815309 48.67463902-9.96794469 63.56182913-14.62828246l4.2719763 16.31118222c-6.34323753 0.51781531-28.35038815 4.91924543-66.15090567 12.94538271 6.86105283 36.11761778 17.08790518 60.97275259 30.55110321 74.82431211 13.46319803 13.72210569 21.23042765 17.47626667 23.17223506 11.13302913s3.23634569-13.20429037 3.88361481-20.58315852c6.34323753 4.01306864 12.55702124 6.60214518 18.90025876 7.76722963-4.01306864 16.05227457-7.89668347 26.66748839-11.65084445 31.84564148-3.75416098 5.17815309-10.61521383 5.95487605-20.58315851 2.58907654-10.09739852-3.49525333-20.97152-12.55702124-32.62236444-27.44421135-11.78029827-14.88719013-21.35988148-40.38959408-28.73874964-76.50721186-21.74824297 4.53088395-35.21144098 7.76722963-40.38959408 9.45012939l-5.17815306-16.31118222c9.19122173-1.16508445 23.81950419-3.75416098 43.88484739-7.76722964-2.97743803-37.41215605-4.66033778-62.13783703-5.30760691-74.17704295z m74.8243121 36.11761777c-5.17815309 3.49525333-10.35630617 7.1199605-15.53445925 11.13302913-5.17815309-9.70903703-11.78029827-19.41807408-19.80643556-29.25656494 4.53088395-2.84798419 9.19122173-6.34323753 13.72210567-10.35630617 10.48576 12.68647506 17.6057205 22.13660445 21.61878914 28.47984198z" p-id="3248"></path>
    <path d="M715.5014163 862.17260247h-31.58673383l0.25890766-6.731599c0.51781531-12.68647506 0.9061768-24.98458864 0.90617678-36.6354331v-56.57132247c-3.75416098 5.30760691-7.1199605 9.83849086-10.09739852 13.3337442l-5.17815308 6.34323753-4.91924544-6.60214518c-3.10689185-4.14252247-6.99050667-8.02613728-11.65084444-11.65084445l-5.95487604-4.66033778 5.56651456-5.17815308c8.54395259-8.02613728 17.73517431-21.35988148 27.05584988-39.48341729 9.45012939-18.25298963 16.44063605-38.31833283 20.97152-59.41930667l1.68289975-8.02613728 7.37886815 3.49525334c8.15559111 3.88361482 14.49882864 6.34323753 18.6413511 7.37886815l8.5439526 2.07126122-4.53088395 7.50832198c-2.20071506 3.62470717-7.1199605 14.23992098-17.99408198 43.3670321v24.725681l3.88361481-0.51781532c8.02613728-1.03563061 20.71261235-3.23634569 37.80051754-6.60214519-2.58907653-33.91690272-4.14252247-56.95968395-4.7897916-68.35162073l-0.38836149-8.02613728 7.89668346 1.29453826c3.3657995 0.51781531 9.83849086 1.4239921 19.41807408 2.58907654l6.73159901 0.77672297-1.16508445 6.73159901c-0.64726914 4.14252247-0.9061768 17.86462815 2.07126124 59.16039902 10.61521383-2.07126124 20.19479703-4.01306864 28.73874963-5.95487606l-3.36579951-6.47269136c-4.91924543-9.32067555-11.26248297-18.77080494-19.02971259-28.09148049l-4.66033778-5.69596839 6.2137837-3.88361482c4.2719763-2.71853037 8.54395259-5.95487605 12.94538272-9.70903703l5.04869926-4.40143013 4.2719763 5.17815309c10.35630617 12.68647506 17.73517431 22.52496592 21.87769678 28.99765728l3.36579952 5.30760691-5.30760693 3.49525334c-4.91924543 3.23634569-9.96794469 6.99050667-15.14609777 10.87412149l-5.30760691 4.14252245c10.22685235-2.33016889 19.02971259-4.66033778 26.14967309-6.86105283l6.47269136-1.9418074 8.02613728 30.29219555-7.6377758 0.64726913c-5.69596839 0.51781531-25.63185778 4.40143013-59.16039902 11.52139061 6.60214518 31.32782617 15.79336691 53.3349768 27.57366518 65.24472889 6.99050667 7.1199605 11.00357531 10.09739852 13.07483656 11.26248297 1.4239921-5.17815309 2.45962272-10.74466765 2.84798419-16.6995437l0.77672295-10.74466765 9.06176791 5.82542221c5.56651457 3.49525333 11.13302914 5.82542222 16.57008988 6.86105284l6.86105284 1.29453828-1.68289976 6.73159902c-4.2719763 16.95845136-8.41449876 28.0914805-12.68647505 34.04635653-3.88361482 5.30760691-11.78029827 10.48576-27.96202666 4.91924544-11.3919368-3.88361482-23.04278124-13.59265185-35.59980249-29.64492642-11.78029827-14.88719013-21.23042765-38.83614815-28.73874962-72.88250469-17.86462815 3.75416098-28.99765728 6.47269136-33.39908741 7.89668345l-6.2137837 2.07126124-5.6959684-17.99408197V818.80557037c0 12.03920592 0.25890765 24.3373195 0.90617679 36.6354331l0.25890766 6.731599z m-18.1235358-12.94538272h4.53088395c-0.38836148-10.22685235-0.64726914-20.45370469-0.64726914-30.55110322v-110.29466072l0.38836149-1.03563063c6.86105283-18.25298963 12.03920592-31.32782617 15.7933669-39.48341728-1.81235358-0.64726914-3.88361482-1.55344592-5.95487605-2.45962272-4.66033778 19.41807408-11.52139061 37.80051753-20.32425085 54.88842272-8.41449876 16.31118222-16.57008987 28.86820347-24.59622717 37.80051753 1.16508445 1.03563061 2.20071506 2.07126124 3.23634568 3.10689185 4.66033778-6.2137837 10.09739852-14.36937482 16.18172839-24.20786567l11.90975211-19.15916643v100.97398519c0.12945383 9.70903703-0.12945383 19.93588939-0.51781531 30.42164938z m72.23523555-108.61176099l1.29453826 6.34323754c7.24941431 34.95253333 16.44063605 59.80766815 27.57366519 73.78868148 10.87412148 13.8515595 20.84206617 22.3955121 29.64492642 25.37295012 4.78979161 1.68289975 11.00357531 2.97743803 13.33374421-0.25890765 1.94180741-2.71853037 5.04869925-8.93231408 8.93231406-23.30168889-1.94180741-0.64726914-3.88361482-1.29453827-5.69596838-2.20071506-0.77672297 4.40143013-1.68289975 8.54395259-2.97743803 12.4275674-1.68289975 5.17815309-5.30760691 6.73159902-7.37886815 7.24941433-6.47269136 1.55344592-14.11046717-3.10689185-26.66748839-15.79336692-14.49882864-14.7577363-25.11404247-40.38959408-32.23400297-78.06065778l-1.16508444-6.2137837 6.2137837-1.29453827c29.12711111-6.2137837 48.80409283-10.09739852 59.41930666-11.90975211l-0.77672295-2.84798419c-14.49882864 4.14252247-33.91690272 8.41449876-57.86586074 12.94538272l-7.1199605 1.29453827-0.51781531-7.24941432c-2.84798419-37.28270222-3.23634569-54.24115358-3.10689186-62.65565234-2.20071506-0.25890765-4.14252247-0.51781531-5.95487603-0.77672297 0.77672297 13.59265185 2.33016889 35.7292563 4.66033777 65.89199803l0.38836148 5.69596838-5.56651457 1.16508445c-15.27555161 3.10689185-27.57366518 5.30760691-36.63543309 6.73159902l0.90617679 3.10689185c7.1199605-1.81235358 18.64135111-4.40143013 34.82307951-7.89668346l6.47269136-1.55344593z m37.1532484-61.36111407c4.66033778 6.08432987 8.80286025 12.16865975 12.4275674 18.12353581 1.55344592-1.16508445 2.97743803-2.20071506 4.53088396-3.23634568-3.3657995-4.66033778-7.76722963-10.48576-13.46319803-17.47626667-1.29453827 0.9061768-2.45962272 1.68289975-3.49525333 2.58907654z" p-id="3249"></path>
</svg>