<?xml version="1.0" standalone="no"?><!DOCTYPE svg PUBLIC "-//W3C//DTD SVG 1.1//EN" "http://www.w3.org/Graphics/SVG/1.1/DTD/svg11.dtd">
<svg t="1600940333568" class="icon" viewBox="0 0 1024 1024" version="1.1"
    xmlns="http://www.w3.org/2000/svg" p-id="4061" width="128" height="128"
    xmlns:xlink="http://www.w3.org/1999/xlink">
    <defs>
        <style type="text/css"></style>
    </defs>
    <path d="M528.14506667 514.61688888c-67.56124445 0-131.14026667-25.6-179.00657778-72.07822222-48.16213333-46.76266667-74.68373333-109.02186667-74.68373334-175.29742222s26.5216-128.53475555 74.68373334-175.29742223c47.87768889-46.47822222 111.44533333-72.07822222 179.00657778-72.07822222s131.14026667 25.6 179.00657777 72.07822222c48.16213333 46.76266667 74.68373333 109.02186667 74.68373333 175.29742223s-26.5216 128.53475555-74.68373333 175.29742222c-47.86631111 46.47822222-111.43395555 72.07822222-179.00657777 72.07822222z m0-421.94488889c-99.7376 0-180.88391111 78.31324445-180.88391112 174.55786667S428.41884444 441.79911111 528.14506667 441.79911111s180.88391111-78.31324445 180.8839111-174.55786667-81.14631111-174.56924445-180.8839111-174.56924445z"  p-id="4062"></path>
    <path d="M528.14506667 587.92391111c-51.13173333 0-92.72888889-41.59715555-92.7288889-92.7288889h45.51111112c0 26.03235555 21.18542222 47.21777778 47.21777778 47.21777778s47.21777778-21.18542222 47.21777777-47.21777778h45.51111111c0 51.13173333-41.59715555 92.72888889-92.72888888 92.7288889z"  p-id="4063"></path>
    <path d="M528.09955555 823.75111111l-96.47217778-111.3656889 64.9216-150.51662222c6.03022222-12.03768889 18.13617778-19.51288889 31.5960889-19.51288888s25.56586667 7.4752 31.59608888 19.51288888l0.55751112 1.20604445 64.37546666 149.86808889-96.57457778 110.80817778z m-43.37208888-119.56906667l43.47448888 50.18737777 43.36071112-49.75502222-43.42897778-101.12568888-43.40622222 100.69333333z m126.5095111 236.78293333h296.04977778v68.98346667h-296.04977778z m104.5048889-186.91868444l114.9178311-114.91783112 51.48103112 51.48103112-114.91783112 114.91783111z"  p-id="4064"></path>
    <path d="M623.78780444 774.98595555l51.03957333-51.04071111 101.01532445 101.01646222-51.03843555 51.03957333z m155.58428445-155.30894222l51.03957333-51.03843556 101.01532445 101.01646222-51.03843556 51.03843556z m-4.53973333 150.90574222l51.03843555-51.03843556 196.89130666 196.89130667-51.03957333 51.03843555z"  p-id="4065"></path>
    <path d="M548.46577777 1009.95982221H12.19697777v-36.40888888c0-69.64337778 13.64195555-137.216 40.56177778-200.84053334 25.98684445-61.44 63.1808-116.62222222 110.55786667-163.98791111 47.37706667-47.37706667 102.54791111-84.57102222 163.98791111-110.55786667 63.63591111-26.91982222 131.20853333-40.56177778 200.84053334-40.56177777 97.30275555 0 192.1024 27.2384 274.1248 78.76835555l-38.72995557 61.65617778c-70.40568889-44.22542222-151.80231111-67.60675555-235.38346666-67.60675556-59.83573333 0-117.87377778 11.70773333-172.47573334 34.80462223-52.77013333 22.3232-100.15857778 54.272-140.86826666 94.98168889s-72.66986667 88.10951111-94.98168889 140.86826666c-18.38648889 43.46311111-29.54808889 89.088-33.34826666 136.06684445h461.99466666v72.81777777z"  p-id="4066"></path>
</svg>