<?xml version="1.0" standalone="no"?><!DOCTYPE svg PUBLIC "-//W3C//DTD SVG 1.1//EN" "http://www.w3.org/Graphics/SVG/1.1/DTD/svg11.dtd">
<svg t="1600940151294" class="icon" viewBox="0 0 1024 1024" version="1.1"
    xmlns="http://www.w3.org/2000/svg" p-id="2726" width="128" height="128"
    xmlns:xlink="http://www.w3.org/1999/xlink">
    <defs>
        <style type="text/css"></style>
    </defs>
    <path d="M690.52591201 622.62009842c-0.10820512 0.54357166 0 17.05503818 0.10820513 36.82538868l0.21768325 35.95656512-5.2142143 0.65177678c-2.93299556 0.32588839-13.25258257 0.97766519-23.02923444 1.41239522-19.22741532 0.75998191-22.05220576 1.62944197-19.66214537 6.08303787 1.08650682 1.95533037 1.84648873 2.17237714 8.36425666 1.52123686 4.01950238-0.32652489 14.44793103-0.97830169 23.35575934-1.30419009l15.96853137-0.75998192-0.10884164 18.35795527c-0.10820512 10.10254026-0.43473002 24.9852013-0.86882355 33.02356956l-0.65177679 14.55677267-9.23371672 3.69297746c-5.1053727 1.95533037-16.51146653 6.08303788-25.52813645 9.12487508-8.9071918 3.04183719-16.51146653 5.64894435-16.72851329 5.86599112-0.65177679 0.54293515 9.99369862 34.54416991 11.2972522 36.06477024 0.97766519 1.08650682 2.60710715 0.21768326 7.71247986-4.34475428 6.95249794-6.19187951 20.8568573-17.70681498 28.46113202-23.57280609l4.56243754-3.58477235v101.24244931l-2.82415393 1.84712526c-1.84712524 1.19471196-5.43189759 1.84648873-10.75431704 2.0635355-11.51493547 0.32588839-12.49260067 1.30355359-6.95249794 7.16954469 4.99653106 5.32305596 7.49543309 11.40609383 7.49543309 18.46743339 0 3.36708908 0.54293515 6.5177679 1.08650682 6.84365631 3.91066074 2.49826553 28.02640199-19.55330372 32.91472793-29.98173237 4.99653106-10.64611191 5.32241945-14.23088426 4.45359589-48.77505417-0.43473002-17.59797335-0.32588839-42.14780812 0.10820512-54.53156715l0.76061844-22.48629926 18.68448017-13.5791075c22.5951409-16.51146653 25.20224807-18.57563853 23.89869449-19.33562044-0.54357166-0.32588839-9.77665185 3.25888396-20.53096892 7.92952662-10.75431705 4.67127917-20.20508051 8.47309828-20.96569892 8.5819399-1.19471196 0-1.41239522-4.88832593-0.76061842-28.02640199 0.43473002-15.31675458 0.86946006-28.02640199 0.97766518-28.02640199 0-0.10820512 10.10254026-0.76061843 22.37809415-1.41239521 21.50863409-1.30355359 24.54983478-1.84648873 23.13807607-4.88832593-0.32588839-0.65177679-4.67127917-4.77948429-9.77665185-9.12487508l-9.34255835-7.9295266-7.71247986 7.49543308c-7.06070306 6.95186143-8.14720987 7.60363822-13.3614242 8.255415l-5.75714948 0.76061844v-48.01443574l3.25888395-6.40892629c3.80181911-7.60427472 5.21421433-6.30072114-13.6873126-13.47026583-13.36142421-5.1053727-15.53443785-5.64830784-15.75148461-4.23654915z"  p-id="2727"></path>
    <path d="M875.63052054 645.64996937L868.78686425 651.94941749l-9.45076348 0.65177682c-5.32305596 0.43473002-29.32995559 0.97766519-53.55453847 1.41239519-24.22394638 0.32588839-45.73258047 0.97766519-48.01379922 1.41239523l-3.91066074 0.6517768 3.47593069 4.12770749 3.47593074 4.23654913 10.53727029-1.19471194c5.75714947-0.65177679 14.66497778-1.19534845 19.77035046-1.19534845h9.45076347l-0.75998191 3.4765672c-9.34255834 46.38435727-25.9628665 82.44976401-52.57687328 113.62620834-7.60427472 8.9078283-9.23371671 12.16671225-6.08303787 12.16671227 2.38942389 0 23.68101123-19.98803375 35.9559286-33.78418797 20.42276379-23.02923442 33.13241119-41.27898458 45.8420586-66.15534425 4.45359591-8.69014505 9.12487507-16.83735493 10.31958702-18.14090852 1.19471196-1.41239522 2.06417201-2.71594879 1.73764711-2.93299555-0.21641027-0.21704676-5.53946621-2.39006039-11.84018736-4.78012079l-11.40609383-4.4535959h28.67817879l28.67817878-0.10820513-0.65177679 11.08020543c-0.32588839 6.19187951-1.19471196 23.35512283-1.84648875 38.34598901-0.76061843 14.88202455-1.73828359 28.24344877-2.17301363 29.54700236-1.62944197 4.01950238-6.19187951 6.08367439-14.55613615 6.73545116-6.62597303 0.54293515-7.71247986 0.97766519-8.03900475 2.82415392-0.10820512 1.52123685 0.97830169 2.93299556 3.69361399 4.67127915 4.78012081 3.04120069 7.93016313 9.77665185 8.03900475 16.72851331 0 4.56243754 0.32588839 5.21421433 2.17237711 5.21421433 5.32305596 0 23.57280609-11.51429898 30.63350917-19.33562045 9.77665185-10.75431705 12.81848905-20.74865217 12.81848904-41.93139788 0-7.82132149 0.54293515-20.96506243 1.19471197-29.32995557l1.19471194-15.09907131 4.23654915-5.64894437c2.28121877-3.15067883 4.23654913-6.08303788 4.23654913-6.62597302 0-1.08650682-25.31045319-18.90216345-26.72284841-18.90216344-0.54293515 0.10884163-4.01886587 2.93299556-7.71247987 6.40956278z"  p-id="2728"></path>
    <path d="M867.37446901 789.47495683c-8.79898668 12.05787062-3.69297748 10.64611191-42.90842654 12.16671227l-34.43532825 1.30355357-13.3614242-7.49543309c-7.38722797-4.23654913-13.57910748-7.38659146-13.68731262-7.16954468-0.65177679 0.65177679-1.62944197 141.86965709-0.97766519 142.41322873 1.41175871 1.52123685 7.27774983-2.17237714 12.16607577-7.49543309 6.5177679-7.1695447 10.42842865-14.99086619 12.05787062-24.54983478l1.30355357-7.17018119 10.97200033-0.75998194c6.08303788-0.54357166 30.85055593-0.86946006 55.07513881-0.97766518 43.34315658-0.10884163 43.99493337-0.10884163 43.66904496-2.28121877-0.21768326-1.19534845-0.86946006-18.03270338-1.30355358-37.47716544l-0.97766519-35.30478834 4.34475427-5.75714948c2.49890203-3.15067883 4.12834401-6.40956278 3.91066074-7.16954469-0.43409351-1.08650682-30.41582589-18.14154502-31.50233269-18.03270339-0.10820512 0-2.06417201 2.60710715-4.34539081 5.75714949z m-7.27774979 54.96693368v36.82538867l-6.73545119 0.65177677c-3.80181911 0.32588839-19.33562046 0.86882355-34.54416991 1.3035536-15.20791295 0.32588839-28.56933715 0.86882355-29.54700232 1.08587031-1.84648873 0.54357166-1.95533037-1.7376471-1.95533038-36.9335938V809.78887898l4.67127918-0.10820513c2.49826553-0.10884163 12.60080579-0.54357166 22.48629927-0.97830169 9.88485699-0.32588839 24.11574126-0.75998191 31.8282211-0.86882355l13.79615425-0.21704679v36.82538869z"  p-id="2729"></path>
    <path d="M484.69333333 11.36298667c-98.03093333 10.10346667-182.81813333 76.5952-214.76693333 168.61866666-29.4912 84.65066667-13.5168 175.3088 43.28106667 245.76 10.10346667 12.6976 30.17386667 31.9488 42.05226666 40.5504 4.23253333 3.14026667 7.91893333 6.144 7.91893334 6.5536 0 0.54613333-5.7344 2.8672-12.56106667 5.18826667-106.63253333 36.864-185.1392 117.00906667-214.76693333 219.27253333-10.92266667 37.81973333-16.384 92.5696-10.78613334 108.9536 2.73066667 8.192 12.97066667 17.6128 21.7088 20.0704 12.56106667 3.54986667 27.8528-1.36533333 35.6352-11.60533333 5.05173333-6.69013333 7.3728-15.83786667 7.3728-29.4912 0-24.30293333 5.7344-56.79786667 14.60906667-82.46613333 29.0816-84.24106667 101.85386667-146.77333333 199.4752-171.2128 34.54293333-8.73813333 65.80906667-12.42453333 105.40373333-12.42453334 60.48426667 0 112.50346667 10.10346667 161.10933334 31.5392 14.06293333 6.144 23.62026667 6.28053333 34.13333333 0.4096 8.73813333-4.9152 15.70133333-14.88213333 17.2032-24.43946666 1.09226667-7.91893333-2.4576-19.79733333-8.05546667-26.2144-5.05173333-5.7344-21.02613333-13.65333333-43.69066666-21.57226667-8.05546667-2.8672-14.47253333-5.3248-14.336-5.46133333 0.27306667-0.27306667 5.05173333-3.95946667 10.6496-8.46506667 31.67573333-25.12213333 55.97866667-55.15946667 73.04533333-90.79466667 33.45066667-69.632 33.45066667-149.77706667-0.13653333-219.5456-46.01173333-95.98293333-149.23093333-154.0096-254.49813334-143.22346666z m42.46186667 66.7648c24.84906667 2.59413333 44.91946667 8.32853333 66.08213333 18.8416 52.15573333 26.07786667 88.33706667 72.9088 100.48853334 130.38933333 3.95946667 18.56853333 4.36906667 52.97493333 0.68266666 71.2704-7.64586667 38.5024-24.84906667 70.99733333-52.0192 98.304-27.30666667 27.17013333-59.8016 44.50986667-98.304 52.0192-16.7936 3.2768-51.33653333 3.2768-68.13013333 0-76.32213333-15.01866667-133.25653333-70.72426667-150.05013333-146.90986667-3.82293333-17.74933333-4.096-55.296-0.4096-72.36266666 8.46506667-39.45813333 25.12213333-70.72426667 52.0192-97.62133334 33.9968-33.86026667 80.2816-53.52106667 129.8432-55.15946666 3.14026667 0 12.01493333 0.54613333 19.79733333 1.2288zM785.90976 988.20209778c111.26101333 0 202.29233778-91.03132445 202.29233778-202.29233778S897.17077333 583.61856 785.90862222 583.61856 583.61856 674.64988445 583.61856 785.90862222s91.03132445 202.29233778 202.2912 202.29233778z m0 33.71463111c-131.48956445 0-236.00696889-104.51626667-236.00696889-236.00696889s104.51740445-236.00696889 236.00696889-236.00696889S1021.91786667 654.42019555 1021.91786667 785.90862222 917.4016 1021.91786667 785.90976 1021.91786667z"  p-id="2730"></path>
</svg>