<?xml version="1.0" standalone="no"?><!DOCTYPE svg PUBLIC "-//W3C//DTD SVG 1.1//EN" "http://www.w3.org/Graphics/SVG/1.1/DTD/svg11.dtd"><svg t="1604973795830" class="icon" viewBox="0 0 1024 1024" version="1.1" xmlns="http://www.w3.org/2000/svg" p-id="1336" xmlns:xlink="http://www.w3.org/1999/xlink" width="200" height="200"><defs><style type="text/css"></style></defs><path d="M616.448 1023.488c-13.312 0-26.624-5.632-36.352-15.36l-171.008-171.008c-14.336-14.336-22.528-33.792-22.528-54.272V370.176c-0.512-5.12-2.048-12.8-7.68-18.944l-220.16-220.16c-22.528-22.528-28.672-54.272-16.384-83.456C154.112 18.432 181.248 0 212.992 0h627.712c31.744 0 58.88 18.432 71.168 47.616 12.288 29.184 5.632 61.44-16.384 83.456l-220.16 220.16c-4.608 4.608-7.168 11.264-7.168 18.432v602.624c0 20.992-12.288 39.424-31.744 47.616-6.656 2.56-13.312 3.584-19.968 3.584z m0-51.2l-14.336 20.992 14.848-20.992h-0.512zM212.992 51.2c-15.872 0-22.016 12.288-23.552 15.872-1.536 3.584-5.632 16.896 5.632 28.16l220.16 220.16c13.824 13.824 22.016 32.768 23.04 53.76v413.696c0 7.168 2.56 13.312 7.168 18.432l171.52 171.52V370.688c0-20.48 7.68-39.936 22.528-54.272l220.16-220.16c11.264-11.264 7.168-24.064 5.632-28.16-1.536-3.584-7.68-15.872-23.552-15.872H212.992z" fill="" p-id="1337"></path></svg>