<?xml version="1.0" standalone="no"?><!DOCTYPE svg PUBLIC "-//W3C//DTD SVG 1.1//EN" "http://www.w3.org/Graphics/SVG/1.1/DTD/svg11.dtd"><svg t="1603103048165" class="icon" viewBox="0 0 1069 1024" version="1.1" xmlns="http://www.w3.org/2000/svg" p-id="7153" xmlns:xlink="http://www.w3.org/1999/xlink" width="208.7890625" height="200"><defs><style type="text/css"></style></defs><path d="M1029.63839375 479.054375L912.00839375 599.883125c-9.674062500000002 9.559687499999999-25.3640625 9.559687499999999-35.038125 0L760.11558125 479.054375c-13.888125-16.573125-4.606875-22.475625 5.0671875-32.049375h106.995C842.6549562499999 284.00093749999996 702.30839375 160.4065625 533.29401875 160.4065625c-130.6696875 0-244.33125 73.8365625-302.8359375 182.6653125l-58.36875-23.7178125C240.12745624999997 187.115 376.21589374999996 96.72218750000002 533.2949562499999 96.72218750000002c203.7028125 0 372.0140625 151.96875 402.23625000000004 350.281875h89.0371875c9.678749999999999 9.57375 14.7459375 22.483125 5.0728124999999995 32.0503125z m-838.6903125-25.6940625l117.63 120.82312499999999c9.674062500000002 9.5671875 4.6078125 22.487812499999997-5.0728124999999995 32.049375H201.65433124999998C242.58370624999998 753.231875 375.46308124999996 860.984375 533.29214375 860.984375c120.10875000000001 0 225.77156250000002-62.443124999999995 287.5171875-157.0378125l58.959375 23.956875c-71.814375 117.9346875-199.92375 196.77375-346.47562500000004 196.77375-192.63093750000002 0-353.32593749999995-135.9759375-395.806875-318.444375H44.12245624999997c-9.6796875-9.560625-18.956249999999997-15.46875-5.0671875-32.049375l116.8546875-120.82312499999999c9.674062500000002-9.5671875 25.3640625-9.5671875 35.038125-0.0009375z m0 0z" p-id="7154"></path></svg>