<?xml version="1.0" standalone="no"?><!DOCTYPE svg PUBLIC "-//W3C//DTD SVG 1.1//EN" "http://www.w3.org/Graphics/SVG/1.1/DTD/svg11.dtd"><svg t="1606183542309" class="icon" viewBox="0 0 1119 1024" version="1.1" xmlns="http://www.w3.org/2000/svg" p-id="18949" xmlns:xlink="http://www.w3.org/1999/xlink" width="139.875" height="128"><defs><style type="text/css"></style></defs><path d="M1037.758816 0.000233h-956.137336a81.62148 81.62148 0 0 0-81.62148 81.62148v658.568741a81.62148 81.62148 0 0 0 81.62148 81.62148h443.088034v132.226797H232.271412a30.31655 30.31655 0 0 0-30.31655 30.083346v9.794578a30.31655 30.31655 0 0 0 30.31655 30.083345h655.537086a30.083345 30.083345 0 0 0 30.083345-30.083345v-9.794578a30.083345 30.083345 0 0 0-30.083345-30.083346H594.903987v-132.226797h443.088034a81.62148 81.62148 0 0 0 81.62148-81.62148V81.621713A81.62148 81.62148 0 0 0 1037.758816 0.000233z m11.660212 740.190221a11.893416 11.893416 0 0 1-11.660212 11.660211h-956.137336a11.893416 11.893416 0 0 1-11.660211-11.660211V81.621713a11.893416 11.893416 0 0 1 11.660211-11.660211h956.137336a11.893416 11.893416 0 0 1 11.660212 11.660211z" p-id="18950" fill="#dbdbdb"></path><path d="M945.409942 372.194182h-71.826902a34.74743 34.74743 0 0 0-24.952853 10.49419l-40.577536 41.510353-49.206092-69.961269a35.213838 35.213838 0 0 0-60.399895 5.130493l-65.996797 139.922537-42.443169-301.299863a34.980634 34.980634 0 0 0-65.297184-11.893416l-111.471621 202.421271-26.118874-46.640846a35.213838 35.213838 0 0 0-23.320423-17.023909 34.74743 34.74743 0 0 0-28.217711 6.296514l-69.961269 51.771339h-90.949649a34.980634 34.980634 0 0 0 0 69.961269h101.910248a35.213838 35.213838 0 0 0 20.988381-6.762923l46.640845-35.213838 37.545881 66.463205a34.980634 34.980634 0 0 0 30.549754 17.956725 34.980634 34.980634 0 0 0 30.31655-18.18993l92.815282-165.341797 44.308804 311.794053a35.447043 35.447043 0 0 0 29.383733 29.850141h5.363697a34.980634 34.980634 0 0 0 31.482571-20.055564L736.225749 443.088267l38.945106 55.269402a34.514226 34.514226 0 0 0 25.652465 14.691867 35.447043 35.447043 0 0 0 27.984508-10.494191l59.700282-61.099507h56.901832a34.980634 34.980634 0 0 0 0-69.961269z" p-id="18951" fill="#dbdbdb"></path></svg>