<svg width="1024" height="1024" xmlns="http://www.w3.org/2000/svg" class="icon">
 <defs>
  <style type="text/css"/>
 </defs>
 <g>
  <title>background</title>
  <rect fill="none" id="canvas_background" height="402" width="582" y="-1" x="-1"/>
 </g>
 <g>
  <title>Layer 1</title>
  <path id="svg_1" d="m712.23237,332.81704"/>
  <path stroke="null" transform="translate(-2.82511258831164e-8,-5.268591962703795e-8) scale(1,1.0015650987625122) translate(2.82511258831164e-8,5.268591962703795e-8) " id="svg_2" d="m511.801255,0c-282.655723,0 -511.801255,228.843637 -511.801255,511.129582c0,282.291792 229.144365,511.13544 511.801255,511.13544c282.662744,0 511.807098,-228.843648 511.807098,-511.13544c0,-282.285946 -229.144354,-511.129582 -511.807098,-511.129582zm0,952.163836c-59.646868,0 -117.468526,-11.653146 -171.870262,-34.632274c-52.580036,-22.211445 -99.813147,-54.023034 -140.395951,-94.546733c-40.579294,-40.524875 -72.431519,-87.694824 -94.665132,-140.205856c-23.01049,-54.329178 -34.677783,-112.080799 -34.677783,-171.64939c0,-59.568591 11.667293,-117.320212 34.677783,-171.644709c17.662399,-41.715535 41.418187,-80.044858 70.774794,-114.368659l192.214316,191.962064c-7.461131,0.668363 -16.821173,1.273639 -27.913986,1.800618c-12.765934,0.607605 -25.823185,0.914913 -38.811411,0.914913c-18.287187,0 -32.658362,-0.304979 -42.71456,-0.909067c-10.182551,-0.609946 -18.735292,-1.320375 -25.4207,-2.112596l-10.563976,-1.25143l0,66.358566l12.046373,-3.435301c10.99102,-3.135004 23.387226,-5.528029 36.839953,-7.111306c11.604111,-1.357771 26.326285,-2.146486 43.858822,-2.35097l0,212.799386c0,14.163029 -1.927004,27.316485 -5.726017,39.087653c-3.617653,11.183432 -9.023072,20.244904 -16.067678,26.935572l-9.241877,8.775209l11.096334,6.277019c11.281193,6.381008 21.416946,14.983282 30.125298,25.56612l7.642467,9.286989l7.221277,-9.617671c3.775608,-5.029094 6.977913,-9.225066 9.797629,-12.842653c2.740149,-3.525268 5.722495,-7.099613 8.874481,-10.634244c3.279528,-3.686521 6.771995,-7.586866 10.472724,-11.687037c3.491289,-3.876983 7.858928,-8.237702 12.98355,-12.959488l68.160997,-65.636456c-0.583833,6.800492 -1.368908,14.304402 -2.338842,22.379698l-1.269459,10.562969l61.529407,0l0,-48.781281l95.481787,0l0,39.518819l45.244103,0l45.984724,45.924365c-1.502292,0.075956 -3.135613,0.119187 -4.924557,0.119187c-1.444953,0 -2.942557,-0.028044 -4.489315,-0.081791c-11.303419,-0.398451 -27.024774,-2.229442 -46.728833,-5.439227l-21.028502,-3.427125l11.571343,17.868242c3.82475,5.905447 6.172955,11.182256 6.977913,15.668008c0.973444,5.476622 1.873186,12.689587 2.676978,21.437917l0.786242,8.577736l8.625275,0c25.824363,0 46.941783,-1.066803 62.771951,-3.168883c11.188764,-1.494474 20.590927,-3.788181 28.436981,-6.938371l58.368057,58.291446c-34.365395,29.316916 -72.745085,53.041517 -114.515438,70.686583c-54.401737,22.980292 -112.230414,34.633439 -171.877282,34.633439zm92.119194,-398.616453l-33.411846,-33.367998l33.411846,0l0,33.367998zm-95.480621,3.926048l55.665341,55.592289l-55.665341,0l0,-55.592289zm-57.132521,-57.057544c0.340469,4.027708 0.513631,8.928275 0.513631,14.646765l0,127.200796c0,5.993085 -0.108813,11.662498 -0.324096,16.954494c-6.413964,-7.337987 -11.075262,-16.348064 -13.86222,-26.793011l-4.522072,-16.952164l-11.673136,13.110236c-13.052586,14.658458 -24.990146,27.402957 -35.481587,37.880619c-5.005278,4.999885 -9.942698,9.743869 -14.780668,14.209765l-0.000011,-180.430434c0,-13.522698 0.909095,-27.342199 2.702715,-41.076392c1.721074,-13.173324 4.044709,-22.931215 6.906545,-28.997915l0.057328,-0.121516l70.463572,70.368758zm396.595515,296.792502l-72.453746,-72.358662c0.057328,-1.965365 0.092429,-3.96462 0.092429,-6.018788l0,-324.176756c0,-17.807484 0.100615,-32.602645 0.307712,-45.237309c0.211773,-13.515698 0.414181,-24.502811 0.61659,-33.598185c0.196555,-9.161967 0.601383,-17.261802 1.202767,-24.071645c0.60255,-6.806338 1.298706,-12.584422 2.069741,-17.174176l1.967948,-11.706894l-11.865025,0.723287c-13.452715,0.820265 -25.958901,1.439551 -37.17458,1.841508c-11.32799,0.413638 -23.26555,0.82844 -35.829065,1.232738c-12.303778,0.406627 -26.137917,0.612275 -41.112819,0.612275l-108.509802,0c-16.01737,0 -30.47512,-0.20566 -42.981306,-0.613451c-12.371636,-0.39144 -24.360681,-0.907902 -35.63602,-1.533035c-11.370112,-0.630968 -22.542502,-1.354254 -33.207093,-2.149981l-10.155648,-0.758342l0,60.252152l16.051305,-0.840133c13.164898,-0.689396 24.933984,-1.305177 35.314268,-1.840343c11.594747,-0.599418 22.523774,-1.010727 32.47467,-1.224551c9.911107,-0.203319 18.989186,-0.406627 27.243567,-0.618122c8.248539,-0.203319 16.69832,-0.306143 25.11651,-0.306143l155.015165,0l0,348.283468l-56.528805,-56.45462l0,-94.411195c0,-9.121077 0.097105,-15.533635 0.298348,-19.625618c0.183692,-3.899192 0.655201,-7.943263 1.401665,-12.018883l2.039316,-11.136684l-11.336177,0c-8.213437,0 -15.697961,0.105165 -22.26286,0.314319c-6.385883,0.211495 -12.963655,0.413638 -19.767241,0.616946c-6.566065,0.204484 -13.85169,0.303803 -22.272212,0.303803l-64.237976,0l-47.786519,-47.723807c0.778055,-0.03155 1.552589,-0.063099 2.340008,-0.094649c10.287855,-0.405462 21.708274,-0.609946 33.943027,-0.609946l44.826411,0c16.560248,0 31.383049,0.104 44.048356,0.307308c12.432474,0.21033 23.799075,0.519979 33.775708,0.919595c10.063219,0.413638 19.431448,0.927759 27.848461,1.528353c8.433408,0.600594 17.285663,1.304013 27.064563,2.149981l10.265628,0.886869l0,-60.727713l-10.27498,0.89855c-9.013719,0.787551 -18.116369,1.510837 -27.05521,2.148816c-8.709518,0.621627 -18.07658,1.13576 -27.846117,1.528365c-9.980154,0.408968 -21.445027,0.718605 -34.084598,0.919583c-12.448858,0.206825 -27.160502,0.307308 -44.977346,0.307308c-17.397975,0 -31.806594,-0.100483 -44.055376,-0.307308c-12.43715,-0.200978 -23.799075,-0.510616 -33.779218,-0.919583c-9.748487,-0.39144 -19.224363,-0.905561 -28.16437,-1.528365c-9.059351,-0.630968 -18.039135,-1.351914 -26.690159,-2.144134l-2.196105,-0.200978l-24.346641,-24.31469l4.850845,-2.634905l-5.073136,-8.443362c-7.339443,-12.217521 -14.04007,-23.088963 -19.920519,-32.326875c-5.906187,-9.251946 -11.986702,-17.987429 -18.081257,-25.973923c-6.038393,-7.89068 -12.502676,-15.828085 -19.222019,-23.601919c-7.107776,-8.200318 -14.815769,-17.043296 -22.909875,-26.281219l-5.792686,-6.611206l-22.722673,17.146131l-62.423296,-62.341375c34.385289,-29.342619 72.788361,-53.087088 114.584462,-70.742671c54.40057,-22.975622 112.223394,-34.626428 171.870262,-34.626428c59.646868,0 117.47438,11.651982 171.873772,34.626428c52.580036,22.211445 99.813158,54.023034 140.391274,94.546733c40.582804,40.524875 72.430342,87.70067 94.670975,140.211702c23.009324,54.323332 34.676617,112.076129 34.676617,171.64472c0,59.568591 -11.667293,117.320201 -34.676617,171.649379c-17.677606,41.736568 -41.45211,80.09043 -70.833276,114.428253z"/>
 </g>
</svg>