<?xml version="1.0" standalone="no"?><!DOCTYPE svg PUBLIC "-//W3C//DTD SVG 1.1//EN" "http://www.w3.org/Graphics/SVG/1.1/DTD/svg11.dtd"><svg t="1602730564519" class="icon" viewBox="0 0 1024 1024" version="1.1" xmlns="http://www.w3.org/2000/svg" p-id="8441" xmlns:xlink="http://www.w3.org/1999/xlink" width="200" height="200"><defs><style type="text/css"></style></defs><path d="M810.4 900.8c-46.5 24.6-103.1 7.2-127.8-37.6-18.9-34.7-13.1-78 11.6-105.5l-36.3-67.9c-18.9 5.8-37.8 8.7-58.1 8.7-90 0-164.1-63.6-178.6-147.3h-75.5c-13.1 36.1-47.9 62.1-88.6 62.1-52.3 0-94.4-41.9-94.4-93.9s42.1-93.9 94.4-93.9c40.7 0 75.5 24.6 88.6 60.7h77c16-82.3 90-143 178.6-143 14.5 0 29 1.4 42.1 4.3l30.5-72.2c-29-26-39.2-67.9-23.2-105.4 20.3-47.7 75.5-70.8 123.4-50.6 47.9 20.2 71.2 75.1 50.8 122.8-16 37.6-52.3 59.2-90 57.8l-32 75.1c47.9 31.8 79.9 86.7 79.9 147.3 0 54.9-26.1 104-65.4 137.2l36.3 67.9c37.8-5.8 77 13 97.3 47.7 23.3 43.4 5.9 101.2-40.6 125.7z m0 0" p-id="8442"></path></svg>