<?xml version="1.0" standalone="no"?><!DOCTYPE svg PUBLIC "-//W3C//DTD SVG 1.1//EN" "http://www.w3.org/Graphics/SVG/1.1/DTD/svg11.dtd"><svg t="1606185395128" class="icon" viewBox="0 0 1024 1024" version="1.1" xmlns="http://www.w3.org/2000/svg" p-id="28015" xmlns:xlink="http://www.w3.org/1999/xlink" width="200" height="200"><defs><style type="text/css"></style></defs><path d="M797.32736 924.0576a31.70304 31.70304 0 1 1 0 63.40608H226.67264a31.70304 31.70304 0 1 1 0-63.40608h570.65472zM892.43648 36.53632a126.81216 126.81216 0 0 1 126.7712 126.81216v507.12576a126.81216 126.81216 0 0 1-126.7712 126.81216H131.56352a126.81216 126.81216 0 0 1-126.7712-126.81216V163.34848A126.81216 126.81216 0 0 1 131.56352 36.53632h760.87296z m0 63.40608H131.56352c-34.97984 0-63.36512 28.38528-63.36512 63.40608v507.12576c0 35.0208 28.38528 63.40608 63.36512 63.40608h760.87296c34.97984 0 63.36512-28.38528 63.36512-63.40608V163.34848c0-35.0208-28.38528-63.40608-63.36512-63.40608zM512 226.7136c103.2192 0 197.75488 49.5616 283.68896 148.6848a63.40608 63.40608 0 0 1 0 83.02592c-85.93408 99.1232-180.51072 148.6848-283.68896 148.6848-103.2192 0-197.75488-49.5616-283.68896-148.6848a63.40608 63.40608 0 0 1 0-83.02592c85.93408-99.1232 180.51072-148.6848 283.68896-148.6848z m0 63.40608c-83.39456 0-161.1776 40.7552-235.76576 126.81216 74.58816 86.016 152.3712 126.7712 235.76576 126.7712s161.1776-40.7552 235.76576-126.81216c-74.58816-86.016-152.3712-126.7712-235.76576-126.7712z m0 31.70304a95.10912 95.10912 0 1 1 0 190.17728 95.10912 95.10912 0 0 1 0-190.17728z m0 63.40608a31.70304 31.70304 0 1 0 0 63.40608 31.70304 31.70304 0 0 0 0-63.40608z" p-id="28016"></path></svg>