<?xml version="1.0" standalone="no"?><!DOCTYPE svg PUBLIC "-//W3C//DTD SVG 1.1//EN" "http://www.w3.org/Graphics/SVG/1.1/DTD/svg11.dtd"><svg t="1603102658186" class="icon" viewBox="0 0 1024 1024" version="1.1" xmlns="http://www.w3.org/2000/svg" p-id="3161" xmlns:xlink="http://www.w3.org/1999/xlink" width="200" height="200"><defs><style type="text/css"></style></defs><path d="M408.32 807.04L494.24 880a27.2 27.2 0 0 0 35.52 0l85.92-73.6a27.36 27.36 0 0 0 0-41.44l-85.92-73.76a27.2 27.2 0 0 0-35.52 0l-85.92 73.76a27.36 27.36 0 0 0 0 42.08zM334.56 554.72l-85.92 73.76a27.36 27.36 0 0 0 0 41.44l85.92 73.6a27.2 27.2 0 0 0 35.52 0l85.92-73.6a27.36 27.36 0 0 0 0-41.44l-85.92-73.76a27.2 27.2 0 0 0-35.52 0zM174.88 417.6l-85.92 73.76a27.2 27.2 0 0 0 0 41.28l85.92 73.76a27.2 27.2 0 0 0 35.52 0l85.92-73.76a27.2 27.2 0 0 0 0-41.28l-85.92-73.76a27.2 27.2 0 0 0-35.52 0zM568 669.92l85.92 73.6a27.2 27.2 0 0 0 35.52 0l85.92-73.6a27.36 27.36 0 0 0 0-41.44l-85.92-73.76a27.2 27.2 0 0 0-35.52 0l-85.92 73.76a27.36 27.36 0 0 0 0 41.44zM408.32 532.64l85.92 73.76a27.2 27.2 0 0 0 35.52 0l85.92-73.76a27.2 27.2 0 0 0 0-41.28l-85.92-73.76a27.2 27.2 0 0 0-35.52 0l-85.92 73.76a27.2 27.2 0 0 0 0 41.28zM456 354.08l-85.92-73.6a27.2 27.2 0 0 0-35.52 0l-85.92 73.6a27.36 27.36 0 0 0 0 41.44l85.92 73.76a27.2 27.2 0 0 0 35.52 0l85.92-73.76a27.36 27.36 0 0 0 0-41.44zM813.6 417.6l-85.92 73.76a27.2 27.2 0 0 0 0 41.28l85.92 73.76a27.2 27.2 0 0 0 35.52 0l85.92-73.76a27.2 27.2 0 0 0 0-41.28l-85.92-73.76a27.2 27.2 0 0 0-35.52 0zM689.44 469.28l85.92-73.76a27.36 27.36 0 0 0 0-41.44l-85.92-73.6a27.2 27.2 0 0 0-35.52 0l-85.92 73.6a27.36 27.36 0 0 0 0 41.44l85.92 73.76a27.2 27.2 0 0 0 35.52 0zM615.68 216.96L529.76 144a27.2 27.2 0 0 0-35.52 0l-85.92 73.6a27.36 27.36 0 0 0 0 41.44l85.92 73.76a27.2 27.2 0 0 0 35.52 0l85.92-73.76a27.36 27.36 0 0 0 0-42.08z" p-id="3162"></path></svg>