<?xml version="1.0" standalone="no"?><!DOCTYPE svg PUBLIC "-//W3C//DTD SVG 1.1//EN" "http://www.w3.org/Graphics/SVG/1.1/DTD/svg11.dtd"><svg t="1606184335311" class="icon" viewBox="0 0 1024 1024" version="1.1" xmlns="http://www.w3.org/2000/svg" p-id="9816" xmlns:xlink="http://www.w3.org/1999/xlink" width="200" height="200"><defs><style type="text/css"></style></defs><path d="M989.86 904.45h-34.13V426.59c0-75.09-61.44-136.53-136.54-136.53H614.4v-68.27c0-75.09-61.44-136.53-136.54-136.53H204.8c-75.09 0-136.54 61.44-136.54 136.53v682.67H34.14C15.02 904.45 0 919.47 0 938.59c0 19.11 15.02 34.14 34.14 34.14h955.73c19.11 0 34.14-15.02 34.14-34.14-0.01-19.12-15.03-34.14-34.15-34.14zM546.14 290.06v614.39H136.53V221.78c0-37.55 30.72-68.27 68.27-68.27h273.06c37.55 0 68.27 30.72 68.27 68.27v68.28z m341.33 614.39H614.4V358.32h204.8c37.55 0 68.27 30.72 68.27 68.27v477.86zM443.73 290.06h-204.8c-19.11 0-34.13 15.01-34.13 34.13 0 19.11 15.01 34.14 34.13 34.14h204.8c19.11 0 34.13-15.02 34.13-34.14s-15.01-34.13-34.13-34.13z m0 204.79h-204.8c-19.11 0-34.13 15.02-34.13 34.14 0 19.11 15.01 34.13 34.13 34.13h204.8c19.11 0 34.13-15.01 34.13-34.13 0-19.12-15.01-34.14-34.13-34.14z m0 204.8h-204.8c-19.11 0-34.13 15.02-34.13 34.13 0 19.11 15.01 34.14 34.13 34.14h204.8c19.11 0 34.13-15.02 34.13-34.14 0-19.11-15.01-34.13-34.13-34.13z m341.34-204.8H716.8c-19.11 0-34.14 15.02-34.14 34.14 0 19.11 15.02 34.13 34.14 34.13h68.27c19.11 0 34.13-15.01 34.13-34.13 0-19.12-15.02-34.14-34.13-34.14z m0 204.8H716.8c-19.11 0-34.14 15.02-34.14 34.13 0 19.11 15.02 34.14 34.14 34.14h68.27c19.11 0 34.13-15.02 34.13-34.14 0-19.11-15.02-34.13-34.13-34.13z m0 0" p-id="9817"></path></svg>