<?xml version="1.0" standalone="no"?><!DOCTYPE svg PUBLIC "-//W3C//DTD SVG 1.1//EN" "http://www.w3.org/Graphics/SVG/1.1/DTD/svg11.dtd"><svg t="1603101656633" class="icon" viewBox="0 0 1024 1024" version="1.1" xmlns="http://www.w3.org/2000/svg" p-id="3652" xmlns:xlink="http://www.w3.org/1999/xlink" width="128" height="128"><defs><style type="text/css"></style></defs><path d="M999.839367 601.616509s-65.891332 66.364031-72.681003 73.125054-29.436236 6.016165-29.436237 6.016165-60.161651-6.761024-68.856442-15.412842-14.625011-71.535068-14.62501-71.535068-1.632959-17.561472 7.018859-26.241939l72.953164-72.924515s8.293713-9.282083-3.666996-9.325056c-38.603726-0.157566-117.028735 0.71621-154.987872 38.675347l-7.821015 7.778042c-44.863403 45.135562-47.556353 112.960662-11.545307 161.720247l-222.168382 201.111804c-17.647418 17.676066-40.909923 65.719441 0 106.629364s88.938974 17.647418 106.572067 0c0 0 145.376332-158.998649 157.795416-172.950422s5.915896-28.505163 5.915895-28.505163-25.568702-35.724561-39.362908-57.096271c-7.505882-11.674225-3.95348-13.135294 6.689402-6.331298 29.364615 18.77903 63.642432 40.308306 69.572652 43.158823l0.329457-0.37243c48.587695 36.397799 116.369822 33.790794 161.462411-11.387741l7.806691-7.80669c36.813201-36.813201 37.916164-114.593621 38.088055-153.827612 0.085945-12.519353-9.06722-4.454827-9.067221-4.454827zM553.167758 978.343037a37.371845 37.371845 0 1 1 37.357521-37.242927 37.35752 37.35752 0 0 1-37.357521 37.371844z m-121.755722-415.401875a868.590996 868.590996 0 0 0 175.929856-17.5185c33.891063-93.465422 123.288412-160.545663 228.313465-160.545663 3.781589 0 7.419937 0.372429 11.158554 0.587293 0.229187-2.607005 0.888101-5.171037 0.888101-7.763718v-141.594743c0 102.375076-186.329227 185.28356-416.289976 185.283561S15.093412 338.480907 15.093412 236.105831v141.709336c0 102.360752 186.329227 185.240588 416.289976 185.240588z m0-192.502959c229.960748 0 416.289976-82.879836 416.289976-185.240588S661.344136 0 431.383388 0 15.093412 82.908485 15.093412 185.312209s186.329227 185.240588 416.289976 185.240588z m0 384.991593c23.104939 0 45.622585-1.031343 67.710506-2.649977L593.791197 658.225757a8.594522 8.594522 0 0 1 0.61594-0.61594 243.66901 243.66901 0 0 1-1.804849-29.608127 248.625184 248.625184 0 0 1 1.87647-28.877593 879.13361 879.13361 0 0 1-163.066722 14.753929C201.42264 613.878026 15.093412 530.983866 15.093412 428.60879v141.695012c0 102.360752 186.329227 185.240588 416.289976 185.240588zM15.093412 621.126073v141.652039c0 97.404578 168.767755 177.004171 383.215392 184.524378-5.299955-46.467713 2.778895-96.401883 26.184642-119.864928l21.414683-21.386034c-4.884553 0.071621-9.625864 0.343781-14.55339 0.343781C201.465612 806.452606 15.093412 723.486824 15.093412 621.126073z" p-id="3653"></path></svg>