<?xml version="1.0" standalone="no"?><!DOCTYPE svg PUBLIC "-//W3C//DTD SVG 1.1//EN" "http://www.w3.org/Graphics/SVG/1.1/DTD/svg11.dtd"><svg t="1603102906674" class="icon" viewBox="0 0 1024 1024" version="1.1" xmlns="http://www.w3.org/2000/svg" p-id="5427" xmlns:xlink="http://www.w3.org/1999/xlink" width="200" height="200"><defs><style type="text/css"></style></defs><path d="M835.2 563.84a21.333333 21.333333 0 0 1-5.12-13.866667v-70.826666a21.333333 21.333333 0 0 1 5.12-13.866667l57.386667-66.986667a21.333333 21.333333 0 0 0 3.413333-24.533333l-69.973333-121.173333a21.333333 21.333333 0 0 0-18.346667-10.666667h-3.84l-86.826667 16.213333h-3.84a21.333333 21.333333 0 0 1-10.666666-2.773333L640 220.8a21.333333 21.333333 0 0 1-9.386667-11.306667l-34.346666-97.706666H426.666667l-34.986667 97.493333a21.333333 21.333333 0 0 1-9.386667 11.306667L321.066667 256a21.333333 21.333333 0 0 1-10.666667 2.773333h-3.84l-86.826667-16.213333h-3.84a21.333333 21.333333 0 0 0-18.346666 10.666667L128 373.76a21.333333 21.333333 0 0 0 2.346667 24.533333l57.386666 66.986667a21.333333 21.333333 0 0 1 5.12 13.866667v70.826666a21.333333 21.333333 0 0 1-5.12 13.866667l-58.026666 66.986667A21.333333 21.333333 0 0 0 128 655.36l69.333333 121.173333a21.333333 21.333333 0 0 0 18.346667 10.666667h3.84l86.826667-16.213333h3.84a21.333333 21.333333 0 0 1 10.666666 2.773333l61.226667 35.413333a21.333333 21.333333 0 0 1 9.386667 11.306667L426.666667 917.333333h170.666666l34.346667-97.493333a21.333333 21.333333 0 0 1 8.32-11.306667l61.226667-35.413333a21.333333 21.333333 0 0 1 10.666666-2.773333h3.84l86.826667 16.213333h3.84a21.333333 21.333333 0 0 0 18.346667-10.666667L896 655.36a21.333333 21.333333 0 0 0-2.346667-24.533333z m-48.64 42.666667l37.76 44.16-39.68 68.906666-57.173333-10.666666a85.333333 85.333333 0 0 0-58.24 10.026666l-61.226667 34.133334a85.333333 85.333333 0 0 0-37.76 45.44L550.826667 853.333333H471.466667l-19.413334-54.826666a85.333333 85.333333 0 0 0-37.76-45.44l-61.226666-35.413334a85.333333 85.333333 0 0 0-58.24-10.026666l-57.173334 10.666666-39.68-68.693333L234.666667 605.44a85.333333 85.333333 0 0 0 21.333333-55.466667v-70.826666a85.333333 85.333333 0 0 0-21.333333-55.466667L197.973333 379.733333l39.68-68.906666 57.173334 10.666666a85.333333 85.333333 0 0 0 58.24-10.026666l61.226666-35.413334a85.333333 85.333333 0 0 0 37.76-45.44l19.413334-54.826666h79.573333l19.413333 54.826666a85.333333 85.333333 0 0 0 37.76 45.44l61.226667 35.413334a85.333333 85.333333 0 0 0 58.24 10.026666l57.173333-10.666666 39.68 68.906666-37.76 44.16a85.333333 85.333333 0 0 0-21.333333 55.466667v70.826667a85.333333 85.333333 0 0 0 21.12 55.253333z m-158.506667-170.666667l-106.666666-61.44a21.333333 21.333333 0 0 0-21.333334 0l-106.666666 61.44a21.333333 21.333333 0 0 0-10.666667 18.56V576a21.333333 21.333333 0 0 0 10.666667 18.56l106.666666 61.44a21.333333 21.333333 0 0 0 21.333334 0l106.666666-61.44a21.333333 21.333333 0 0 0 10.666667-18.56v-122.666667a21.333333 21.333333 0 0 0-10.666667-18.56z m-53.333333 116.48l-64 36.693333-64-36.693333V477.866667l64-36.693334 64 36.693334z" p-id="5428"></path></svg>