<?xml version="1.0" standalone="no"?><!DOCTYPE svg PUBLIC "-//W3C//DTD SVG 1.1//EN" "http://www.w3.org/Graphics/SVG/1.1/DTD/svg11.dtd"><svg t="1606183719793" class="icon" viewBox="0 0 1024 1024" version="1.1" xmlns="http://www.w3.org/2000/svg" p-id="7903" xmlns:xlink="http://www.w3.org/1999/xlink" width="200" height="200"><defs><style type="text/css"></style></defs><path d="M918.87 745.677H582.996c-20.548 0-36.864 17.613-36.864 39.663 0 22.05 16.384 39.594 36.864 39.594H918.87c20.549 0 36.864-17.544 36.864-39.594s-16.315-39.595-36.864-39.595z m-300.033-159.88c0 22.118 16.384 39.594 36.933 39.594h262.963c20.616 0 36.932-17.545 36.932-39.595 0-21.64-16.384-39.663-36.864-39.663H655.77c-20.48 0-36.864 17.613-36.864 39.595z m299.896 358.877H655.838c-20.617 0-36.864 17.613-36.864 39.663 0 22.05 16.384 39.663 36.864 39.663H918.8c20.617 0 36.932-17.613 36.932-39.595 0-22.118-16.315-39.73-36.864-39.73z" p-id="7904"></path><path d="M133.53 956.826v-57.413c0-195.584 145.203-356.488 329.728-374.715h0.546a361.626 361.626 0 0 1 34.406-1.639h4.915c40.96-3.413 102.673-13.107 134.895-43.213l15.77-13.107a263.236 263.236 0 0 0 97.143-205.21C750.933 117.147 637.338 0 497.596 0c-139.879 0-252.86 117.692-252.86 262.144 0 80.145 35.499 155.17 97.143 205.141l15.77 13.108-18.5 7.987C174.285 555.486 68.267 716.937 68.267 899.482v91c0 18.772 14.745 33.518 32.768 33.518h476.638a333.824 333.824 0 0 1-39.39-67.106H133.53v-0.068z m177.493-697.071C310.955 153.463 395.605 66.9 499.234 66.9s188.28 86.426 188.28 192.785c0 106.36-84.651 192.785-188.28 192.785-104.175-0.136-188.348-86.493-188.348-192.785z" p-id="7905"></path></svg>