<?xml version="1.0" standalone="no"?><!DOCTYPE svg PUBLIC "-//W3C//DTD SVG 1.1//EN" "http://www.w3.org/Graphics/SVG/1.1/DTD/svg11.dtd"><svg t="1606183162997" class="icon" viewBox="0 0 1024 1024" version="1.1" xmlns="http://www.w3.org/2000/svg" p-id="16167" xmlns:xlink="http://www.w3.org/1999/xlink" width="128" height="128"><defs><style type="text/css"></style></defs><path d="M936.781856 231.190889a285.820849 285.820849 0 0 0-201.712872-82.791505h-0.731374c-36.714961 0-72.552273 6.874913-106.56115 20.33219a281.798294 281.798294 0 0 0-94.34721 61.581667L267.428629 493.388367c-30.717696 30.425147-47.539292 70.943251-47.466155 114.313712a160.170844 160.170844 0 0 0 48.051254 114.240575c30.790834 30.571421 71.674624 47.31988 115.410772 47.466155h0.29255c43.589874 0 84.32739-16.675321 114.971948-46.807918l233.600766-230.894683a39.859868 39.859868 0 0 0 0-57.120288 40.956928 40.956928 0 0 0-57.632249 0L441.056749 665.407466a80.963071 80.963071 0 0 1-57.485974 23.330821h-0.146275a82.498955 82.498955 0 0 1-58.071073-23.769645 80.304834 80.304834 0 0 1-23.989058-57.412837 78.622675 78.622675 0 0 1 23.550234-56.900876l266.220033-263.148263a202.151696 202.151696 0 0 1 143.276112-58.290486h0.511961c54.633617 0.073137 105.976052 21.1367 144.44631 59.094997 38.39712 38.031433 59.680095 88.642495 59.82637 142.617875a197.617179 197.617179 0 0 1-58.875584 142.032776l-282.383393 279.38476a300.667736 300.667736 0 0 1-212.317791 86.155824H384.740973a303.154406 303.154406 0 0 1-213.561126-87.545434 295.25557 295.25557 0 0 1-88.49622-211.074455 292.330075 292.330075 0 0 1 87.326022-210.343081L534.599448 69.118473a39.859868 39.859868 0 0 0 0-57.120287A40.956928 40.956928 0 0 0 476.894062 11.778774L112.3774 372.346017a372.708047 372.708047 0 0 0-111.168805 267.682781c0.073137 49.294589 9.507858 97.272705 28.304163 142.617875a382.06963 382.06963 0 0 0 210.855043 208.587784c45.710857 18.430618 94.274072 27.792201 144.226897 28.011614h1.023923a383.971202 383.971202 0 0 0 269.65749-109.92547l282.383393-279.311623a279.750447 279.750447 0 0 0 82.864642-199.51875c-0.365687-75.40463-29.986322-146.274744-83.74229-199.445613z" fill="#bfbfbf" p-id="16168"></path></svg>