<?xml version="1.0" standalone="no"?><!DOCTYPE svg PUBLIC "-//W3C//DTD SVG 1.1//EN" "http://www.w3.org/Graphics/SVG/1.1/DTD/svg11.dtd"><svg t="1605599993148" class="icon" viewBox="0 0 1024 1024" version="1.1" xmlns="http://www.w3.org/2000/svg" p-id="744" xmlns:xlink="http://www.w3.org/1999/xlink" width="200" height="200"><defs><style type="text/css"></style></defs><path d="M419.8 379.42l-1.15 1.98c1.49-0.52 2.94-1.18 4.36-1.98h-3.21zM484 450.51h14.75l-18.03-31.23-11.34 19.64A21.43 21.43 0 0 1 484 450.51zM467.09 442.9l-4.39 7.61h16.34c-2.64-4.05-6.95-6.92-11.95-7.61z" fill="#FFFFFF" p-id="745"></path><path d="M789.59 346.57c-5.91 0-11.82-1.48-16.25-5.91-8.86-8.86-8.86-22.15 0-31.01l81.24-81.24c8.86-8.86 22.16-8.86 31.01 0 8.87 8.86 8.87 22.15 0 31.02l-81.23 79.76c-2.96 4.43-8.86 7.38-14.77 7.38zM305.12 346.57c-5.91 0-11.81-1.48-16.24-5.91l-81.24-81.24c-8.86-8.87-8.86-22.16 0-31.02s22.16-8.86 31.01 0l81.24 81.24c8.86 8.86 8.86 22.16 0 31.01-2.96 2.97-8.86 5.92-14.77 5.92zM192.87 545.97h-88.61c-11.83 0-22.17-10.34-22.17-22.15 0-11.82 10.34-22.17 22.16-22.17h88.62c11.82 0 22.15 10.34 22.15 22.17 0 11.8-10.33 22.15-22.15 22.15zM545.87 257.95c-11.81 0-22.15-10.34-22.15-22.16V88.09c0-11.81 10.34-22.16 22.15-22.16 11.82 0 22.17 10.34 22.17 22.16v147.7c0 11.82-10.34 22.16-22.17 22.16z" fill="#FFCC00" p-id="746"></path><path d="M820.6 588.8c-11.81 0-22.15-10.34-22.15-22.17 0-138.84-112.26-251.09-251.1-251.09-138.84 0-251.09 112.26-251.09 251.09 0 11.82-10.34 22.17-22.16 22.17s-22.16-10.34-22.16-22.17c0-162.47 132.94-295.4 295.41-295.4 162.47 0 295.41 132.93 295.41 295.4 0.01 11.83-10.33 22.17-22.16 22.17z" fill="#FFCC00" p-id="747"></path><path d="M749.71 591.75c-11.82 0-22.17-10.34-22.17-22.15 0-53.18-42.82-97.5-97.48-97.5-53.17 0-97.48 42.83-97.48 97.5 0 11.81-10.34 22.15-22.16 22.15s-22.15-10.34-22.15-22.15c0-78.28 63.51-141.8 141.8-141.8 78.27 0 141.79 63.52 141.79 141.8 0 11.81-10.34 22.15-22.15 22.15z" fill="#FFCC00" p-id="748"></path><path d="M677.33 958.06c-53.18 0-113.73-17.72-178.72-63.51-214.16-153.61-358.91-8.86-364.82-2.96-8.86 8.87-22.16 8.87-31.02 0-8.87-8.87-8.87-22.16 0-31.02 1.48-1.48 177.23-178.71 423.9-2.96 212.7 152.14 369.26-60.55 375.17-69.41 7.38-10.34 20.67-11.82 31.01-4.44 10.34 7.4 11.82 20.68 4.44 31.03-1.48 2.96-104.87 143.28-259.96 143.28v-0.01z" fill="#1088FF" p-id="749"></path><path d="M677.33 832.51c-53.18 0-113.73-17.72-178.72-63.51-214.16-153.61-358.91-8.86-364.82-2.97-8.86 8.87-22.16 8.87-31.02 0-8.87-8.86-8.87-22.15 0-31.01 1.48-1.48 177.23-178.71 423.9-2.96 212.7 152.14 369.26-60.55 375.17-69.41 7.38-10.34 20.67-11.82 31.01-4.44 10.34 7.4 11.82 20.68 4.44 31.02-1.48 2.96-104.87 143.28-259.96 143.28z" fill="#1088FF" p-id="750"></path></svg>