<?xml version="1.0" standalone="no"?><!DOCTYPE svg PUBLIC "-//W3C//DTD SVG 1.1//EN" "http://www.w3.org/Graphics/SVG/1.1/DTD/svg11.dtd"><svg t="1603337008919" class="icon" viewBox="0 0 1024 1024" version="1.1" xmlns="http://www.w3.org/2000/svg" p-id="2747" xmlns:xlink="http://www.w3.org/1999/xlink" width="200" height="200"><defs><style type="text/css"></style></defs><path d="M512 768.1c-68.4 0-132.7-26.6-181.1-75-48.4-48.4-75-112.7-75-181.1s26.6-132.7 75-181.1c48.4-48.4 112.7-75 181.1-75s132.7 26.6 181.1 75c48.4 48.4 75 112.7 75 181.1s-26.6 132.7-75 181.1-112.7 75-181.1 75z m0-472.2c-119.2 0-216.1 97-216.1 216.1s97 216.1 216.1 216.1 216.1-97 216.1-216.1S631.2 295.9 512 295.9z" fill="#FFFF00" p-id="2748"></path><path d="M512 768.6c-68.5 0-132.9-26.7-181.5-75.1-48.4-48.5-75.1-112.9-75.1-181.5 0-68.5 26.7-132.9 75.1-181.5 48.6-48.5 113-75.1 181.5-75.1s132.9 26.7 181.5 75.1C742 379 768.6 443.4 768.6 512c0 68.5-26.7 132.9-75.1 181.5-48.7 48.4-113.1 75.1-181.5 75.1z m0-472.3c-118.9 0-215.7 96.8-215.7 215.7S393.1 727.7 512 727.7 727.7 630.9 727.7 512 630.9 296.3 512 296.3zM12 490h163.5v44H12z" fill="#FFFF00" p-id="2749"></path><path d="M185.5 544H2v-64h183.5v64zM22 524h143.5v-24H22v24zM490 10.2h44v163.5h-44z" fill="#FFFF00" p-id="2750"></path><path d="M544 183.8h-64V0.2h64v183.6z m-44-20h24V20.2h-24v143.6zM490 844.2h44v163.5h-44z" fill="#FFFF00" p-id="2751"></path><path d="M544 1017.8h-64V834.2h64v183.6z m-44-20h24V854.2h-24v143.6zM141.146 171.778l31.112-31.113L287.87 256.276l-31.112 31.113z" fill="#FFFF00" p-id="2752"></path><path d="M256.7 301.5L127 171.8l45.3-45.3L302 256.3l-45.3 45.2zM155.2 171.8l101.5 101.5 17-17-101.5-101.5-17 17z" fill="#FFFF00" p-id="2753"></path><path d="M848.5 490H1012v44H848.5z" fill="#FFFF00" p-id="2754"></path><path d="M1022 544H838.5v-64H1022v64z m-163.5-20H1002v-24H858.5v24z" fill="#FFFF00" p-id="2755"></path><path d="M734.138 764.778l31.112-31.113 115.611 115.611-31.112 31.113z" fill="#FFFF00" p-id="2756"></path><path d="M849.7 894.5L720 764.8l45.3-45.3L895 849.3l-45.3 45.2zM748.2 764.8l101.5 101.5 17-17-101.5-101.5-17 17z" fill="#FFFF00" p-id="2757"></path><path d="M734.071 256.28l115.611-115.61 31.112 31.112-115.61 115.61z" fill="#FFFF00" p-id="2758"></path><path d="M765.2 301.5L720 256.3l129.8-129.8 45.3 45.3-129.9 129.7z m-17-45.2l17 17 101.5-101.5-17-17-101.5 101.5z" fill="#FFFF00" p-id="2759"></path><path d="M151.108 852.257l115.61-115.61 31.113 31.112-115.61 115.61z" fill="#FFFF00" p-id="2760"></path><path d="M182.2 897.5L137 852.2l129.8-129.8 45.3 45.3-129.9 129.8z m-17-45.3l17 17 101.5-101.5-17-17-101.5 101.5z" fill="#FFFF00" p-id="2761"></path></svg>