<?xml version="1.0" standalone="no"?><!DOCTYPE svg PUBLIC "-//W3C//DTD SVG 1.1//EN" "http://www.w3.org/Graphics/SVG/1.1/DTD/svg11.dtd"><svg t="1603337143586" class="icon" viewBox="0 0 1024 1024" version="1.1" xmlns="http://www.w3.org/2000/svg" p-id="6491" xmlns:xlink="http://www.w3.org/1999/xlink" width="200" height="200"><defs><style type="text/css"></style></defs><path d="M597.64 500.12c-16.82-86.3-91.79-151.38-181.64-151.38s-164.89 65.08-181.71 151.38c-61.29 16.82-106.44 73.7-106.44 141.31 0 80.81 64.48 146.33 144.06 146.33H560c79.57 0 144.06-65.52 144.06-146.33 0.01-67.61-45.06-124.49-106.42-141.31zM649.2 636a97 97 0 0 1-97.2 96.89H279.92c-53.67 0-97.19-43.35-97.19-96.83a97 97 0 0 1 97.19-96.86c0-74.88 60.91-135.58 136-135.58s136 60.7 136 135.58c53.67 0 97.19 43.35 97.19 96.83z" fill="#0057D9" p-id="6492"></path><path d="M582.79 371.1a109.76 109.76 0 0 1 144.72 164.31 27.89 27.89 0 0 1-19.54 8 27.44 27.44 0 0 1-18.27-47.91 54.88 54.88 0 0 0-73.81-80.67 27.44 27.44 0 0 1-33.09-43.77zM896.15 483.19a27.44 27.44 0 0 1-27.44 27.44h-27.44a27.44 27.44 0 0 1 0-54.88h27.44a27.44 27.44 0 0 1 27.44 27.44zM585.92 237a27.44 27.44 0 0 1 32.92 20.54l6.16 26.69a27.44 27.44 0 0 1-53.45 12.35l-6.17-26.73a27.44 27.44 0 0 1 20.55-32.92zM818 290.43a27.44 27.44 0 0 1 4.09 38.57l-17.29 21.33a27.44 27.44 0 1 1-43.91-32.92q0.62-0.82 1.3-1.6l17.29-21.35a27.44 27.44 0 0 1 38.58-4z" fill="#FFCC00" p-id="6493"></path></svg>