<?xml version="1.0" standalone="no"?><!DOCTYPE svg PUBLIC "-//W3C//DTD SVG 1.1//EN" "http://www.w3.org/Graphics/SVG/1.1/DTD/svg11.dtd"><svg t="1606202929988" class="icon" viewBox="0 0 1024 1024" version="1.1" xmlns="http://www.w3.org/2000/svg" p-id="2577" xmlns:xlink="http://www.w3.org/1999/xlink" width="200" height="200"><defs><style type="text/css"></style></defs><path d="M743.52 396.192l-37.504-6.4-12.288-35.968a192.096 192.096 0 0 0-363.456 0l-12.288 35.968-37.504 6.4A106.72 106.72 0 0 0 298.656 608h426.688a106.656 106.656 0 0 0 18.176-211.808zM896 501.344A170.656 170.656 0 0 1 725.344 672H298.656a170.656 170.656 0 0 1-28.928-338.88 256.096 256.096 0 0 1 484.544 0A170.72 170.72 0 0 1 896 501.344zM376 742.4a8 8 0 1 1 16 0v51.2a8 8 0 1 1-16 0v-51.2z" fill="#4A90E2" p-id="2578"></path><path d="M376 742.4a8 8 0 1 1 16 0v51.2a8 8 0 1 1-16 0v-51.2z" fill="#4A90E2" p-id="2579"></path><path d="M360.256 755.552a8 8 0 1 1 11.296-11.296l36.192 36.16a8 8 0 1 1-11.296 11.328l-36.192-36.16z" fill="#4A90E2" p-id="2580"></path><path d="M407.744 755.552a8 8 0 1 0-11.296-11.296l-36.192 36.16a8 8 0 1 0 11.296 11.328l36.192-36.16z" fill="#4A90E2" p-id="2581"></path><path d="M409.6 760a8 8 0 1 1 0 16h-51.2a8 8 0 1 1 0-16h51.2zM440 838.4a8 8 0 1 1 16 0v51.2a8 8 0 1 1-16 0v-51.2z" fill="#4A90E2" p-id="2582"></path><path d="M440 838.4a8 8 0 1 1 16 0v51.2a8 8 0 1 1-16 0v-51.2z" fill="#4A90E2" p-id="2583"></path><path d="M424.256 851.552a8 8 0 1 1 11.296-11.296l36.192 36.16a8 8 0 1 1-11.296 11.328l-36.192-36.16z" fill="#4A90E2" p-id="2584"></path><path d="M471.744 851.552a8 8 0 1 0-11.296-11.296l-36.192 36.16a8 8 0 1 0 11.296 11.328l36.192-36.16z" fill="#4A90E2" p-id="2585"></path><path d="M473.6 856a8 8 0 1 1 0 16h-51.2a8 8 0 1 1 0-16h51.2zM248 742.4a8 8 0 1 1 16 0v51.2a8 8 0 1 1-16 0v-51.2z" fill="#4A90E2" p-id="2586"></path><path d="M248 742.4a8 8 0 1 1 16 0v51.2a8 8 0 1 1-16 0v-51.2z" fill="#4A90E2" p-id="2587"></path><path d="M232.256 755.552a8 8 0 0 1 11.296-11.296l36.192 36.16a8 8 0 0 1-11.296 11.328l-36.192-36.16z" fill="#4A90E2" p-id="2588"></path><path d="M279.744 755.552a8 8 0 0 0-11.296-11.296l-36.192 36.16a8 8 0 0 0 11.296 11.328l36.192-36.16z" fill="#4A90E2" p-id="2589"></path><path d="M281.6 760a8 8 0 1 1 0 16H230.4a8 8 0 1 1 0-16h51.2zM312 838.4a8 8 0 1 1 16 0v51.2a8 8 0 1 1-16 0v-51.2z" fill="#4A90E2" p-id="2590"></path><path d="M312 838.4a8 8 0 1 1 16 0v51.2a8 8 0 1 1-16 0v-51.2z" fill="#4A90E2" p-id="2591"></path><path d="M296.256 851.552a8 8 0 0 1 11.296-11.296l36.192 36.16a8 8 0 1 1-11.296 11.328l-36.192-36.16z" fill="#4A90E2" p-id="2592"></path><path d="M343.744 851.552a8 8 0 0 0-11.296-11.296l-36.192 36.16a8 8 0 1 0 11.296 11.328l36.192-36.16z" fill="#4A90E2" p-id="2593"></path><path d="M345.6 856a8 8 0 1 1 0 16H294.4a8 8 0 1 1 0-16h51.2zM504 742.4a8 8 0 1 1 16 0v51.2a8 8 0 1 1-16 0v-51.2z" fill="#4A90E2" p-id="2594"></path><path d="M504 742.4a8 8 0 1 1 16 0v51.2a8 8 0 1 1-16 0v-51.2z" fill="#4A90E2" p-id="2595"></path><path d="M488.256 755.552a8 8 0 1 1 11.296-11.296l36.192 36.16a8 8 0 1 1-11.296 11.328l-36.192-36.16z" fill="#4A90E2" p-id="2596"></path><path d="M535.744 755.552a8 8 0 1 0-11.296-11.296l-36.192 36.16a8 8 0 1 0 11.296 11.328l36.192-36.16z" fill="#4A90E2" p-id="2597"></path><path d="M537.6 760a8 8 0 1 1 0 16h-51.2a8 8 0 1 1 0-16h51.2zM632 742.4a8 8 0 1 1 16 0v51.2a8 8 0 1 1-16 0v-51.2z" fill="#4A90E2" p-id="2598"></path><path d="M632 742.4a8 8 0 1 1 16 0v51.2a8 8 0 1 1-16 0v-51.2z" fill="#4A90E2" p-id="2599"></path><path d="M616.256 755.552a8 8 0 1 1 11.296-11.296l36.192 36.16a8 8 0 1 1-11.296 11.328l-36.192-36.16z" fill="#4A90E2" p-id="2600"></path><path d="M663.744 755.552a8 8 0 1 0-11.296-11.296l-36.192 36.16a8 8 0 1 0 11.296 11.328l36.192-36.16z" fill="#4A90E2" p-id="2601"></path><path d="M665.6 760a8 8 0 1 1 0 16h-51.2a8 8 0 1 1 0-16h51.2zM568 838.4a8 8 0 1 1 16 0v51.2a8 8 0 1 1-16 0v-51.2z" fill="#4A90E2" p-id="2602"></path><path d="M568 838.4a8 8 0 1 1 16 0v51.2a8 8 0 1 1-16 0v-51.2z" fill="#4A90E2" p-id="2603"></path><path d="M552.256 851.552a8 8 0 1 1 11.296-11.296l36.192 36.16a8 8 0 1 1-11.296 11.328l-36.192-36.16z" fill="#4A90E2" p-id="2604"></path><path d="M599.744 851.552a8 8 0 1 0-11.296-11.296l-36.192 36.16a8 8 0 1 0 11.296 11.328l36.192-36.16z" fill="#4A90E2" p-id="2605"></path><path d="M601.6 856a8 8 0 1 1 0 16h-51.2a8 8 0 1 1 0-16h51.2zM760 742.4a8 8 0 1 1 16 0v51.2a8 8 0 1 1-16 0v-51.2z" fill="#4A90E2" p-id="2606"></path><path d="M760 742.4a8 8 0 1 1 16 0v51.2a8 8 0 1 1-16 0v-51.2z" fill="#4A90E2" p-id="2607"></path><path d="M744.256 755.552a8 8 0 1 1 11.296-11.296l36.192 36.16a8 8 0 1 1-11.296 11.328l-36.192-36.16z" fill="#4A90E2" p-id="2608"></path><path d="M791.744 755.552a8 8 0 1 0-11.296-11.296l-36.192 36.16a8 8 0 1 0 11.296 11.328l36.192-36.16z" fill="#4A90E2" p-id="2609"></path><path d="M793.6 760a8 8 0 1 1 0 16h-51.2a8 8 0 1 1 0-16h51.2zM696 838.4a8 8 0 1 1 16 0v51.2a8 8 0 1 1-16 0v-51.2z" fill="#4A90E2" p-id="2610"></path><path d="M696 838.4a8 8 0 1 1 16 0v51.2a8 8 0 1 1-16 0v-51.2z" fill="#4A90E2" p-id="2611"></path><path d="M680.256 851.552a8 8 0 1 1 11.296-11.296l36.192 36.16a8 8 0 1 1-11.296 11.328l-36.192-36.16z" fill="#4A90E2" p-id="2612"></path><path d="M727.744 851.552a8 8 0 1 0-11.296-11.296l-36.192 36.16a8 8 0 1 0 11.296 11.328l36.192-36.16z" fill="#4A90E2" p-id="2613"></path><path d="M729.6 856a8 8 0 1 1 0 16h-51.2a8 8 0 1 1 0-16h51.2z" fill="#4A90E2" p-id="2614"></path></svg>