<?xml version="1.0" standalone="no"?><!DOCTYPE svg PUBLIC "-//W3C//DTD SVG 1.1//EN" "http://www.w3.org/Graphics/SVG/1.1/DTD/svg11.dtd"><svg t="1603337125009" class="icon" viewBox="0 0 1024 1024" version="1.1" xmlns="http://www.w3.org/2000/svg" p-id="6186" xmlns:xlink="http://www.w3.org/1999/xlink" width="200" height="200"><defs><style type="text/css"></style></defs><path d="M754.33 422.53C731.87 309.21 631.92 223.75 512 223.75s-219.92 85.46-242.37 198.78a192.17 192.17 0 0 0-142.18 185.75c0.11 106.13 86.23 192.08 192.36 192h384.33a192.17 192.17 0 0 0 185.75-142.21C917.5 555.6 856.8 450.14 754.33 422.53z m-50.19 322.82H319.81a137.26 137.26 0 0 1 0-274.52c0-106.13 86-192.17 192.17-192.17s192.17 86 192.17 192.17a137.26 137.26 0 1 1 0 274.52z" fill="#0057D9" p-id="6187"></path></svg>