<?xml version="1.0" standalone="no"?><!DOCTYPE svg PUBLIC "-//W3C//DTD SVG 1.1//EN" "http://www.w3.org/Graphics/SVG/1.1/DTD/svg11.dtd"><svg t="1603337107749" class="icon" viewBox="0 0 1024 1024" version="1.1" xmlns="http://www.w3.org/2000/svg" p-id="5898" xmlns:xlink="http://www.w3.org/1999/xlink" width="200" height="200"><defs><style type="text/css"></style></defs><path d="M754 341.15c-22.46-112.69-122.26-197.66-242-197.66s-219.56 85-242 197.66c-83.83 22.49-142.05 98.24-142 184.7 0.11 105.53 86.1 191 192.07 190.89h383.78c86.82 0.09 162.88-57.89 185.47-141.37C916.89 473.46 856.29 368.6 754 341.15z m-50.11 321H320.1C244.4 662.14 183 601 183 525.65s61.4-136.49 137.1-136.49c0-105.53 85.9-191.08 191.9-191.08s191.88 85.55 191.88 191.08c75.69 0 137.06 61.11 137.06 136.49s-61.39 136.49-137.09 136.49z" fill="#0057D9" p-id="5899"></path><path d="M512 880.51c-22.7 0-41.12-19.54-41.12-43.68q0-24.16 41.12-65.51 41.12 41.36 41.12 65.51c-0.03 24.17-18.45 43.68-41.12 43.68z" fill="#FFCC00" p-id="5900"></path></svg>