<svg width="1024" height="1024" xmlns="http://www.w3.org/2000/svg" p-id="17526" version="1.1" class="icon" t="1606184760629">
 <defs>
  <style type="text/css"/>
 </defs>
 <g>
  <title>background</title>
  <rect fill="none" id="canvas_background" height="1026" width="1026" y="-1" x="-1"/>
 </g>
 <g>
  <title>Layer 1</title>
  <path stroke="null" id="svg_1" p-id="17527" d="m413.132907,956.438142c-193.069214,0 -349.754563,-158.929768 -349.754563,-353.979938c0,-179.397996 132.625052,-327.491644 304.568151,-350.367898l-69.833545,-50.568563c-171.943099,50.568563 -298.11295,210.702344 -298.11295,400.936461c0,231.170572 184.853502,418.394655 413.132907,418.394655c185.440339,0 342.712525,-124.01338 394.940975,-294.381275l-49.294267,-70.434784c-25.820807,169.765889 -170.769426,300.401342 -345.646708,300.401342zm-36.383864,-507.491646l-48.707431,0c-6.455202,0 -12.323567,5.41806 -12.323567,11.438127l0,35.518395c-29.928662,6.020067 -52.815286,17.458194 -68.073036,34.314382c-17.018259,19.264214 -25.23397,40.334449 -25.23397,65.016723c0,22.274248 7.628875,40.936455 22.886624,58.39465c15.257749,16.856188 53.402123,31.304348 113.259447,43.344482c17.018259,3.010033 29.341826,7.22408 36.9707,12.040134c8.802548,5.41806 13.49724,14.448161 13.49724,24.682275c0,13.846154 -8.802548,30.100335 -49.881104,30.100335c-14.084076,0 -25.820807,-1.80602 -36.383864,-6.020067c-14.670913,-6.020067 -25.820807,-15.652174 -32.862845,-29.498328l-0.586837,-0.602007l0,-0.602007c-1.173673,-2.408027 -4.107856,-4.214047 -7.042038,-4.214047l-69.246709,0c-4.107856,0 -8.215711,3.61204 -8.215711,7.22408c0,1.204013 0.586837,3.61204 0.586837,3.61204c16.431422,51.170569 52.22845,80.066891 109.738428,89.096991l0,36.120402c0,6.622074 5.281529,11.438127 12.323567,11.438127l48.707431,0c7.042038,0 12.323567,-5.41806 12.323567,-11.438127l0,-36.120402c32.862845,-4.816054 59.270488,-16.254181 78.049257,-33.712375c21.126115,-19.264214 31.689172,-42.140469 31.689172,-70.434784c0,-19.866221 -5.281529,-37.324415 -15.844586,-51.772576c-10.563057,-14.448161 -24.060297,-24.682275 -39.904883,-30.702342c-17.018259,-6.622074 -46.360085,-13.846154 -86.851804,-22.876255c-25.820807,-5.41806 -33.449681,-10.234114 -37.557537,-13.244147c-5.868365,-5.41806 -8.802548,-12.040134 -8.802548,-19.866221c0,-11.438127 5.868365,-30.702342 44.599575,-30.702342c19.952442,0 36.383864,5.41806 48.120594,16.254181c4.107856,3.61204 7.628875,7.826087 10.563057,12.642141l0.586837,1.204013c1.173673,2.408027 4.107856,3.61204 7.042038,3.61204l62.204671,0c4.107856,0 8.215711,-3.61204 8.215711,-7.826087c0,-1.204013 -1.173673,-4.816054 -2.347346,-7.826087c-16.431422,-40.936455 -49.294267,-65.016723 -99.762208,-72.84281l0,-34.314382c0.586837,-6.020067 -5.281529,-11.438127 -11.73673,-11.438127zm326.867939,-148.093648l-221.824203,-108.361206c-20.539278,-8.428094 -31.102335,-31.906355 -22.886624,-52.976589c4.107856,-10.836121 12.323567,-19.264214 22.886624,-23.478261l221.824203,-108.361206c21.712951,-10.234114 46.360085,-10.234114 67.486199,0l221.824203,108.361206c20.539278,8.428094 31.102335,31.906355 22.886624,53.578596c-4.107856,10.836121 -12.323567,19.264214 -22.886624,23.478261l-221.824203,108.361206c-21.126115,9.632107 -45.773248,9.632107 -67.486199,-0.602007zm34.036518,144.481608c-15.844586,0 -32.276008,-3.61204 -46.360085,-10.836121l-217.716347,-110.769232c-15.257749,-6.020067 -22.886624,-24.080268 -17.018259,-39.732442s23.473461,-23.478261 38.73121,-17.458194c1.76051,0.602007 3.521019,1.80602 4.694692,2.408027l217.129511,110.769232c12.910403,6.622074 27.581316,6.622074 39.904883,0l218.303184,-111.371239c14.084076,-9.0301 32.862845,-4.214047 41.665393,10.234114s4.107856,33.712375 -9.976221,42.742476c-1.76051,1.204013 -2.934183,1.80602 -4.694692,2.408027l-217.716347,110.769232c-14.670913,7.22408 -31.102335,10.836121 -46.946921,10.836121zm0,130.635453c-15.844586,0 -32.276008,-3.61204 -46.360085,-10.836121l-217.716347,-110.769232c-15.257749,-6.020067 -22.886624,-24.080268 -17.018259,-39.732442c5.868365,-15.652174 23.473461,-23.478261 38.73121,-17.458194c1.76051,0.602007 3.521019,1.80602 4.694692,2.408027l217.129511,110.769232c12.910403,6.622074 27.581316,6.622074 39.904883,0l217.716347,-110.769232c14.084076,-9.0301 32.862845,-4.816054 41.665393,9.632107c8.802548,14.448161 4.694692,33.712375 -9.389384,42.742476c-1.76051,1.204013 -3.521019,1.80602 -5.281529,2.408027l-217.716347,110.769232c-14.084076,7.22408 -30.515499,10.836121 -46.360085,10.836121z"/>
 </g>
</svg>