<?xml version="1.0" standalone="no"?><!DOCTYPE svg PUBLIC "-//W3C//DTD SVG 1.1//EN" "http://www.w3.org/Graphics/SVG/1.1/DTD/svg11.dtd"><svg t="1602754010137" class="icon" viewBox="0 0 1405 1024" version="1.1" xmlns="http://www.w3.org/2000/svg" p-id="16015" xmlns:xlink="http://www.w3.org/1999/xlink" width="274.4140625" height="200"><defs><style type="text/css"></style></defs><path d="M737.627119 0c231.944678 0 420.534237 185.708475 425.133559 416.542373l0.104136 6.074576C1301.486644 450.768271 1405.830508 573.335864 1405.830508 720.271186s-104.343864 269.502915-242.98305 297.654238l-33.792 6.074576L312.40678 1022.281763C136.990373 1004.873763 0 856.879729 0 676.881356c0-183.591051 142.526915-333.893424 322.976542-346.285559C365.984542 141.277288 535.309017 0 737.627119 0z m0 52.067797c-172.951864 0-321.883119 118.627797-362.409221 283.838915l-1.475254 6.213424-8.57383 37.766508-38.634306 2.655458C172.483254 393.111864 52.067797 521.580475 52.067797 676.881356c0 150.007322 112.501153 275.438644 259.731525 292.968136l5.744814 0.624813 14.821966 1.457898h795.266169l24.871051-5.03322c114.427661-23.239593 198.517153-123.122983 201.189966-240.830915L1353.762712 720.271186c0-118.280678-82.232407-219.69139-195.653424-245.412881l-5.605966-1.214915-11.055729-2.238915-29.591864 3.401762-0.208271-9.458983-0.746305-0.138847-0.121492-43.389831-0.069424-4.217491C1106.683661 216.775593 944.21478 55.365424 743.771119 52.119864L737.627119 52.067797z" p-id="16016"></path></svg>