<?xml version="1.0" standalone="no"?><!DOCTYPE svg PUBLIC "-//W3C//DTD SVG 1.1//EN" "http://www.w3.org/Graphics/SVG/1.1/DTD/svg11.dtd"><svg t="1606184499067" class="icon" viewBox="0 0 1057 1024" version="1.1" xmlns="http://www.w3.org/2000/svg" p-id="11908" xmlns:xlink="http://www.w3.org/1999/xlink" width="206.4453125" height="200"><defs><style type="text/css"></style></defs><path d="M989.89574 823.755328H60.147407A60.219026 60.219026 0 0 1 0 763.60792V63.181276A60.219026 60.219026 0 0 1 60.147407 3.033869h486.801292a35.809133 35.809133 0 0 1 0 71.618266H71.618266v677.484926h906.818551V489.166724a35.809133 35.809133 0 0 1 71.618266 0v274.441196a60.230962 60.230962 0 0 1-60.159343 60.147408z" p-id="11909"></path><path d="M292.6203 587.271812l-51.135443-50.132786L482.110296 291.774846a40.297211 40.297211 0 0 1 28.790543-12.163169h0.238727a40.297211 40.297211 0 0 1 28.647307 11.936378l83.69788 83.69788 189.991324-190.027133 50.646051 50.634114L652.203678 447.771366a40.643366 40.643366 0 0 1-57.413977 0l-83.483025-83.483026z" p-id="11910"></path><path d="M944.835914 318.560077a40.76273 40.76273 0 0 1-28.754734-11.936377L742.32333 132.889722a40.583684 40.583684 0 0 1 18.202976-67.906053L997.881176 1.386649a40.583684 40.583684 0 0 1 49.715014 49.703077l-63.620894 237.366807a40.583684 40.583684 0 0 1-39.139382 30.103544z m-113.801425-198.310979l97.73506 97.746997 35.809134-133.520321zM254.877473 663.593011a89.224423 89.224423 0 1 1 89.224424-89.224423 89.331851 89.331851 0 0 1-89.224424 89.224423z m0-106.83058a17.606157 17.606157 0 1 0 17.606157 17.606157 17.618093 17.618093 0 0 0-17.606157-17.606157zM1021.646504 1024H35.809133a35.809133 35.809133 0 1 1 0-71.618266h985.837371a35.809133 35.809133 0 0 1 0 71.618266z" p-id="11911"></path></svg>