<?xml version="1.0" standalone="no"?><!DOCTYPE svg PUBLIC "-//W3C//DTD SVG 1.1//EN"
  "http://www.w3.org/Graphics/SVG/1.1/DTD/svg11.dtd">
<svg t="1597224396955" class="icon" viewBox="0 0 1024 1024" version="1.1" xmlns="http://www.w3.org/2000/svg" p-id="1535"
     width="32" height="32">
  <defs>
    <style type="text/css"></style>
  </defs>
  <path
    d="M426.542817 0.599756h170.530695C710.527404-1.899228 833.477436 32.886635 911.045912 112.954095c80.167419 77.568476 114.853323 200.518508 112.454298 313.972399v170.530696c2.399025 113.453892-32.286878 236.403924-112.454298 313.972399-77.568476 80.167419-200.518508 114.853323-313.9724 112.454298H426.542817c-113.453892 2.399025-236.403924-32.286878-313.9724-112.454298C32.402998 833.961073-2.282906 711.011041 0.116119 597.557149V427.026454C-2.282906 313.472603 32.402998 190.52257 112.570417 112.954095 190.138893 32.886635 313.088925-1.899228 426.542817 0.599756z"
    fill="#FF2A8E" p-id="1536"></path>
  <path
    d="M112.570417 112.954095C36.90117 186.224317 1.715469 299.878128 0.116119 407.834254c137.943939 0 249.79848-111.954501 249.798481-249.89844 0-42.782613-10.795613-83.066241-29.687935-118.251942-40.583507 17.892728-77.568476 42.182857-107.656248 73.270223z"
    fill="#FFFFFF" opacity=".5" p-id="1537"></path>
  <path
    d="M749.911398 754.793247l-52.978469-23.790331c-9.096303-1.899228-18.292566 2.998781-21.591226 11.595287L659.048325 780.682726c-5.597725 14.694028-25.889478 16.293378-33.786269 2.798862l-60.675341-113.553851c-17.992688 4.598131-36.685091 7.297034-56.177169 7.297035-16.493297 0-32.486797-1.899228-47.880541-5.197888l-61.375057 107.856167c-8.096709 13.994313-29.188138 11.695247-34.086147-3.598538L345.375804 753.693694c-2.798863-8.796425-11.795206-14.094272-20.991469-12.594881L272.905256 762.490119c-15.593663 2.598944-27.28891-13.994313-19.292159-27.588787L332.880882 593.858652c-31.087366-38.184482-49.779769-86.664779-49.779769-139.443329 0-122.950032 100.85901-222.709489 225.308433-222.70949S733.717979 331.46529 733.717979 454.415323c0 49.080054-16.293378 94.261691-43.482329 131.046742l79.867542 141.842354c8.196669 13.994313-4.298253 30.887447-20.191794 27.488828z m-152.937845-333.364518l-47.280785-2.898822c-5.797644-0.399838-10.995531-3.998375-13.294597-9.396182l-18.492485-43.582287c-5.397806-12.694841-23.490453-12.494922-28.588381 0.399837l-17.292972 44.082085c-2.099147 5.397806-7.197075 9.196263-12.994719 9.696059L411.848789 423.827754c-13.794394 1.199513-19.092241 18.492485-8.496547 27.18895l36.585131 30.087772c4.498172 3.698497 6.497359 9.696059 5.197888 15.393744l-10.695653 46.081272c-3.098741 13.394556 11.695247 23.890291 23.290534 16.493297l39.883791-25.489641c4.898009-3.098741 11.19545-3.1987 16.193419-0.199918l40.583507 24.390087c11.795206 7.097116 26.289316-3.698497 22.890697-17.093053l-11.895166-45.781394c-1.499391-5.697684 0.399838-11.695247 4.79805-15.493703l35.785457-31.087366c10.595694-8.896384 4.698091-25.989438-8.996344-26.889072z"
    fill="#FFFFFF" p-id="1538"></path>
  <path
    d="M639.556247 424.327551c0 54.777738 26.989031 103.258035 68.472172 132.84601 16.293378-30.687528 25.5896-65.573351 25.589601-102.758238 0-53.378307-18.992281-102.45836-50.779363-140.842761-26.789113 29.188138-43.28241 68.072335-43.28241 110.754989z"
    fill="#FF2A8E" opacity=".5" p-id="1539"></path>
</svg>
